<?xml version="1.0" standalone="no"?>
<!DOCTYPE svg PUBLIC "-//W3C//DTD SVG 1.1//EN" "http://www.w3.org/Graphics/SVG/1.1/DTD/svg11.dtd" >
<svg>
<metadata>
Created by FontForge 20090914 at Wed Nov 19 12:55:40 2014
 By www-data
</metadata>
<defs>
<font id="YekanWeb-Regular" horiz-adv-x="0" >
  <font-face 
    font-family="YekanWeb-Regular"
    font-weight="400"
    font-stretch="normal"
    units-per-em="2048"
    panose-1="2 0 5 3 0 0 0 0 0 0"
    ascent="1638"
    descent="-410"
    bbox="-348 -940.999 2475 2240"
    underline-thickness="100"
    underline-position="-100"
    unicode-range="U+0020-U+FEFC"
  />
<missing-glyph horiz-adv-x="1024" 
d="M0 1092h820v-1092h-820v1092zM718 102v888h-616v-888h616z" />
    <glyph glyph-name="uniFDF2" unicode="&#xfedf;&#xfee0;&#x651;&#x670;&#xfeea;" horiz-adv-x="2401" arabic-form="isolated" 
d="M1445 1432v274h66v-274h-66zM1684 1221c0 -34 -9.33105 -61.667 -27.998 -83s-43.334 -32 -74.001 -32s-62.334 16.333 -95.001 49c-18 -32.667 -47.333 -49 -88 -49c-73.333 0 -110 38.333 -110 115v100h68v-98c0 -26 16 -39 48 -39c31.333 0 47 13 47 39v98h65v-98
c0 -28.667 18.667 -43 56 -43h5c23.333 1.33301 35 14 35 38v103h71v-100zM537.002 204c40.667 36 61 77.333 61 124c0 39.333 -11.667 77.333 -35 114l-162 163l-7 -8c-72.667 -66.667 -119.667 -117.334 -141 -152.001c-22.667 -36 -34 -72.333 -34 -109
c0 -37.333 15.667 -77.666 47 -120.999c32 -42.667 78.333 -64 139 -64c48.667 0 92.667 17.667 132 53zM402.002 -13c-96.667 0 -179.999 35.666 -249.999 106.999c-70.667 70.667 -106 154.667 -106 252c0 66 24.333 135 73 207c20.667 32.667 73 91 157 175l-57 66
l118 117l567 -603c53.333 -55.333 89.333 -90.666 108 -105.999l2 -1c26 -12.667 64.667 -19.334 116 -20.001v-3l62 -2h66c60 0 100.667 17 122 51c18 28 27 78 27 150v643h168v-679c0 -72 23 -120 69 -144l3 -1c42 -10 103 -15 183 -15h117c56 0 94.333 16.333 115 49
c17.333 27.333 26 76.333 26 147v844h167v-925c0 -88.667 -27.333 -158.667 -82 -210c-54 -50.667 -126.333 -76 -217 -76h-183c-80.667 0 -135.667 4.33301 -165 13c-30 8.66699 -67 31.334 -111 68.001c-47.333 -40.667 -89.666 -64 -126.999 -70
c-40 -7.33301 -125 -11 -255 -11c-81.333 2 -132.333 13.333 -153 34h-1c-10.667 4 -80.334 64 -209.001 180c-72.667 -158 -189.334 -237 -350.001 -237z" />
    <glyph glyph-name="uniFEF5" unicode="&#xfedf;&#xfe82;" horiz-adv-x="1115" arabic-form="isolated" 
d="M554 10c-242 0 -362.999 95.333 -362.999 286v925h171v-844c0 -94 12.667 -151 38 -171c17.333 -16.667 68.666 -25 153.999 -25h171c53.333 0 93 17.333 119 52l1 2c12 28 18 75.333 18 142v844h164v-925c0 -90.667 -25.667 -161 -77 -211s-122.333 -75 -213 -75h-183z
M180.001 1369c-50 0 -87.667 -12.665 -113 -37.998c-24.667 -24.667 -47.667 -57.334 -69 -98.001l-130 48c40.667 95.333 75.667 154 105 176c50 41.333 115.333 62.666 196 63.999h407v-152h-396z" />
    <glyph glyph-name="uniFEF6" unicode="&#xfee0;&#xfe82;" horiz-adv-x="1194" arabic-form="final" 
d="M183 302v919h169v-919h-169zM1005 358c0 -66.667 17.667 -113.334 53 -140.001c31.333 -23.333 84.666 -35.666 159.999 -36.999v-171c-103.333 2.66699 -187 48 -251 136c-65.333 -90.667 -151.666 -136 -258.999 -136h-405c-84 0 -126 48.667 -126 146
c0 12.667 0.333008 21 1 25h515c57.333 0 96 16.667 116 50c16.667 27.333 25 76 25 146v844h171v-863zM192 1376c-50 0 -87.667 -12.665 -113 -37.998c-24.667 -24.667 -47.667 -57.334 -69 -98.001l-130 48c40.667 95.333 75.667 154 105 176
c50 41.333 115.333 62.666 196 63.999h407v-152h-396z" />
    <glyph glyph-name="uniFEF7" unicode="&#xfedf;&#xfe84;" horiz-adv-x="1066" arabic-form="isolated" 
d="M523 10c-242 0 -362.999 95.333 -362.999 286v925h171v-844c0 -94 12.667 -151 38 -171c17.333 -16.667 68.666 -25 153.999 -25h171c53.333 0 93 17.333 119 52l1 2c12 28 18 75.333 18 142v844h164v-925c0 -90.667 -25.667 -161 -77 -211s-122.333 -75 -213 -75h-183z
M220.001 1515c17.333 -10.667 38.667 -15.999 64 -15.999h1c29.333 0 78 13.333 146 40l29 -69l-364 -132l-20 65l94 36c-38.667 36 -58 69.333 -58 100c0 47.333 17.667 89.333 53 126c35.333 35.333 76 53.666 122 54.999c37.333 0 72.666 -14.667 105.999 -44l-43 -63
c-19.333 17.333 -42.666 26 -69.999 26c-24 0 -44.333 -6.66699 -61 -20c-18 -13.333 -27 -31 -27 -53s9.33301 -39 28 -51z" />
    <glyph glyph-name="uniFEF8" unicode="&#xfee0;&#xfe84;" horiz-adv-x="1185" arabic-form="final" 
d="M174 302v919h169v-919h-169zM996 358c0 -66.667 17.667 -113.334 53 -140.001c31.333 -23.333 84.666 -35.666 159.999 -36.999v-171c-103.333 2.66699 -187 48 -251 136c-65.333 -90.667 -151.666 -136 -258.999 -136h-405c-84 0 -126 48.667 -126 146
c0 12.667 0.333008 21 1 25h515c57.333 0 96 16.667 116 50c16.667 27.333 25 76 25 146v844h171v-863zM204 1527c17.333 -10.667 38.667 -15.999 64 -15.999h1c29.333 0 78 13.333 146 40l29 -69l-364 -132l-20 65l94 36c-38.667 36 -58 69.333 -58 100
c0 47.333 17.667 89.333 53 126c35.333 35.333 76 53.666 122 54.999c37.333 0 72.666 -14.667 105.999 -44l-43 -63c-19.333 17.333 -42.666 26 -69.999 26c-24 0 -44.333 -6.66699 -61 -20c-18 -13.333 -27 -31 -27 -53s9.33301 -39 28 -51z" />
    <glyph glyph-name="uniFEF9" unicode="&#xfedf;&#xfe88;" horiz-adv-x="1065" arabic-form="isolated" 
d="M252 -355c17.333 -10.667 38.667 -15.999 64 -15.999h1c29.333 0 78 13.333 146 40l29 -69l-364 -132l-20 65l94 36c-38.667 36 -58 69.333 -58 100c0 47.333 17.667 89.333 53 126c35.333 35.333 76 53.666 122 54.999c37.333 0 72.666 -14.667 105.999 -44l-43 -63
c-19.333 17.333 -42.666 26 -69.999 26c-24 0 -44.333 -6.66699 -61 -20c-18 -13.333 -27 -31 -27 -53s9.33301 -39 28 -51zM510.001 10.001c-242 0 -362.999 95.333 -362.999 286v925h171v-844c0 -94 12.667 -151 38 -171c17.333 -16.667 68.666 -25 153.999 -25h171
c53.333 0 93 17.333 119 52l1 2c12 28 18 75.333 18 142v844h164v-925c0 -90.667 -25.667 -161 -77 -211s-122.333 -75 -213 -75h-183z" />
    <glyph glyph-name="uniFEFA" unicode="&#xfee0;&#xfe88;" horiz-adv-x="1167" arabic-form="final" 
d="M156 302v919h169v-919h-169zM978 358c0 -66.667 17.667 -113.334 53 -140.001c31.333 -23.333 84.666 -35.666 159.999 -36.999v-171c-103.333 2.66699 -187 48 -251 136c-65.333 -90.667 -151.666 -136 -258.999 -136h-405c-84 0 -126 48.667 -126 146
c0 12.667 0.333008 21 1 25h515c57.333 0 96 16.667 116 50c16.667 27.333 25 76 25 146v844h171v-863zM255 -379c17.333 -10.667 38.667 -15.999 64 -15.999h1c29.333 0 78 13.333 146 40l29 -69l-364 -132l-20 65l94 36c-38.667 36 -58 69.333 -58 100
c0 47.333 17.667 89.333 53 126c35.333 35.333 76 53.666 122 54.999c37.333 0 72.666 -14.667 105.999 -44l-43 -63c-19.333 17.333 -42.666 26 -69.999 26c-24 0 -44.333 -6.66699 -61 -20c-18 -13.333 -27 -31 -27 -53s9.33301 -39 28 -51z" />
    <glyph glyph-name="uniFEFB" unicode="&#xfedf;&#xfe8e;" horiz-adv-x="1071" arabic-form="isolated" 
d="M510 10c-242 0 -362.999 95.333 -362.999 286v925h171v-844c0 -94 12.667 -151 38 -171c17.333 -16.667 68.666 -25 153.999 -25h171c53.333 0 93 17.333 119 52l1 2c12 28 18 75.333 18 142v844h164v-925c0 -90.667 -25.667 -161 -77 -211s-122.333 -75 -213 -75h-183z
" />
    <glyph glyph-name="uniFEFC" unicode="&#xfee0;&#xfe8e;" horiz-adv-x="1122" arabic-form="final" 
d="M111 302v919h169v-919h-169zM933 358c0 -66.667 17.667 -113.334 53 -140.001c31.333 -23.333 84.666 -35.666 159.999 -36.999v-171c-103.333 2.66699 -187 48 -251 136c-65.333 -90.667 -151.666 -136 -258.999 -136h-405c-84 0 -126 48.667 -126 146
c0 12.667 0.333008 21 1 25h515c57.333 0 96 16.667 116 50c16.667 27.333 25 76 25 146v844h171v-863z" />
    <glyph glyph-name="uni0675.fina" unicode="&#x675;" horiz-adv-x="550" 
d="M353 377c0 -58 3.66699 -98.334 11 -121.001c10.667 -33.333 33 -54.666 67 -63.999c20 -5.33301 66 -9 138 -11v-171c-158.667 0.666992 -267 31 -325 91c-42 45.333 -63 110.333 -63 195v898h172v-817zM238 1488c17.333 -10.667 38.667 -15.999 64 -15.999h1
c29.333 0 78 13.333 146 40l29 -69l-364 -132l-20 65l94 36c-38.667 36 -58 69.333 -58 100c0 47.333 17.667 89.333 53 126c35.333 35.333 76 53.666 122 54.999c37.333 0 72.666 -14.667 105.999 -44l-43 -63c-19.333 17.333 -42.666 26 -69.999 26
c-24 0 -44.333 -6.66699 -61 -20c-18 -13.333 -27 -31 -27 -53s9.33301 -39 28 -51z" />
    <glyph glyph-name="uni0676.fina" unicode="&#x676;" horiz-adv-x="951" 
d="M650 10c-164 0 -283.001 23.667 -357.001 71c-86 54.667 -129 151 -129 289c0 152.667 37.667 262.334 113 329.001c48 38 121.667 57 221 57c142.667 0 241.334 -59.333 296.001 -178c31.333 -74.667 47 -203.667 47 -387v-10h130v-171h-130v-10
c0 -90.667 -23 -173 -69 -247c-40.667 -66.667 -95.667 -120.334 -165 -161.001c-76 -44.667 -159 -67 -249 -67h-238l-26 168h233c98 0 178 31 240 93s93 133.333 93 214v10h-10zM668.999 375c0 62 -15.667 112.333 -47 151c-32.667 40.667 -77.667 61 -135 61
c-98.667 0 -148 -69 -148 -207c0 -78.667 21.667 -132 65 -160c41.333 -26 126 -39 254 -39h11v194zM452.999 1108c17.333 -10.667 38.667 -15.999 64 -15.999h1c29.333 0 78 13.333 146 40l29 -69l-364 -132l-20 65l94 36c-38.667 36 -58 69.333 -58 100
c0 47.333 17.667 89.333 53 126c35.333 35.333 76 53.666 122 54.999c37.333 0 72.666 -14.667 105.999 -44l-43 -63c-19.333 17.333 -42.666 26 -69.999 26c-24 0 -44.333 -6.66699 -61 -20c-18 -13.333 -27 -31 -27 -53s9.33301 -39 28 -51z" />
    <glyph glyph-name="uni0678.fina" unicode="&#x678;" horiz-adv-x="1373" 
d="M1217 10l8.99902 -103c0 -106 -42.333 -196.333 -127 -271c-82 -74 -176 -111 -282 -111h-298c-142 0 -258.333 54.333 -349 163c-76.667 103.333 -115 230.333 -115 381v331h174v-408c0 -69.333 24 -134 72 -194l1 -1c64 -69.333 151 -104 261 -104h245
c65.333 0 123 19 173 57c48.667 38 73 94 73 168c0 41.333 -32.333 67.333 -97 78c-53.333 9.33301 -152.666 14 -297.999 14l-14 171h749v-171h-177zM395.999 819c17.333 -10.667 38.667 -15.999 64 -15.999h1c29.333 0 78 13.333 146 40l29 -69l-364 -132l-20 65l94 36
c-38.667 36 -58 69.333 -58 100c0 47.333 17.667 89.333 53 126c35.333 35.333 76 53.666 122 54.999c37.333 0 72.666 -14.667 105.999 -44l-43 -63c-19.333 17.333 -42.666 26 -69.999 26c-24 0 -44.333 -6.66699 -61 -20c-18 -13.333 -27 -31 -27 -53s9.33301 -39 28 -51
z" />
    <glyph glyph-name="uni06A1.init" unicode="&#x6a1;" horiz-adv-x="894" 
d="M649 514c0 61.333 -15.999 112.999 -47.999 154.999c-34.667 44.667 -80 67 -136 67c-39.333 0 -72.333 -9 -99 -27c-30 -20 -45 -47 -45 -81c0 -63.333 19.667 -100.666 59 -111.999c13.333 -8 56.666 -12 129.999 -12h139v10zM831.001 319.999
c0 -107.333 -36.333 -187.666 -109 -240.999c-58.667 -46 -118.667 -69 -180 -69h-566v171h569c79.333 0 119 51.333 119 154v10h-11c-174.667 0 -287 6 -337 18c-101.333 42.667 -152 126.667 -152 252c0 94 31 167.333 93 220c64 54 139 81 225 81s162 -31 228 -93
c78.667 -68.667 118 -162.334 118 -281.001z" />
    <glyph glyph-name="uni06A1.medi" unicode="&#x6a1;" horiz-adv-x="912" 
d="M335 542c-36 -34 -53.999 -70.001 -53.999 -108.001c0 -80.667 66.667 -151 200 -211l5 -4c42 34 73.667 66.333 95 97s32 62.334 32 95.001c0 42 -17.667 82.667 -53 122c-36 39.333 -74.333 59 -115 59c-38.667 0 -75.334 -16.667 -110.001 -50zM216.001 670.999
c61.333 56.667 138.667 84.999 232 84.999c101.333 0 180.333 -34 237 -102c52.667 -65.333 79 -141.333 79 -228c0 -87.333 -25 -169 -75 -245h265v-169l-51 4h-51l-136 3c-49.333 0 -99.333 4.33301 -150 13l-90 31c-46.667 -35.333 -225 -53 -535 -53v171h297l-14 16
c-68.667 80.667 -103 164.334 -103 251.001c0 90.667 31.667 165 95 223z" />
    <glyph glyph-name="uni06A1.fina" unicode="&#x6a1;" horiz-adv-x="1725" 
d="M1422 533c-34.667 39.333 -71.999 58.998 -111.999 58.998c-40.667 0 -79.334 -15.667 -116.001 -47c-37.333 -32.667 -56 -68.667 -56 -108c0 -77.333 68 -148.666 204 -213.999l5 -3l4 4c81.333 50 122 112.333 122 187c0 42.667 -17 83.334 -51 122.001z
M261.001 340.998c0 -106.667 51.333 -160 154 -160h686l-14 16c-68.667 80.667 -103 162.667 -103 246c0 84 29.333 157.333 88 220c58 62 135.667 93 233 93c95.333 0 174 -34.333 236 -103c55.333 -66.667 83 -142 83 -226c0 -88 -25 -170 -75 -246h192v-171
c-210.667 0 -346.334 15.667 -407.001 47c-13.333 -17.333 -70.666 -30 -171.999 -38c-44.667 -3.33301 -107.667 -5 -189 -5l-638 -4c-69.333 0 -130 34.667 -182 104c-40.667 62.667 -61 129 -61 199v280h169v-252z" />
    <glyph glyph-name="uniFB51" unicode="&#x671;" horiz-adv-x="550" arabic-form="final" 
d="M353 377c0 -58 3.66699 -98.334 11 -121.001c10.667 -33.333 33 -54.666 67 -63.999c20 -5.33301 66 -9 138 -11v-171c-158.667 0.666992 -267 31 -325 91c-42 45.333 -63 110.333 -63 195v898h172v-817zM353 1388c-2 33.333 -16.001 50 -42.001 50
c-11.333 0 -26.666 -6.33301 -45.999 -19l-83 -73h171v42zM393.999 1377l-1 -72h-315v41h51l120 104c23.333 19.333 44 29 62 29c53.333 0 81 -34 83 -102z" />
    <glyph glyph-name="uniFB57" unicode="&#x67e;" horiz-adv-x="1824" arabic-form="final" 
d="M269 341c0 -59.333 10.6699 -100.668 32.0029 -124.001c22 -24 61.667 -36 119 -36h891c56.667 0 94 7 112 21h1c28 24 42 70.333 42 139v252h173v-252c0 -60.667 18.667 -103 56 -127c31.333 -20.667 82.666 -31.667 153.999 -33v-171l-108 6l-81 11
c-42.667 12.667 -77.334 34.334 -104.001 65.001c-63.333 -54.667 -125 -82 -185 -82h-1010c-72.667 0 -135.334 32 -188.001 96c-50.667 60.667 -76 129.667 -76 207v280h172v-252zM1118 -227.002c24 -24 36 -51.333 36 -82c0 -32 -12 -59.667 -36 -83
c-24 -24 -52 -36 -84 -36s-59.667 12 -83 36c-23.333 23.333 -35 51 -35 83c0 31.333 11.667 59 35 83c23.333 23.333 51 35 83 35c31.333 0 59.333 -12 84 -36zM807.003 -392.002c-24 -24 -51.666 -35.999 -82.999 -35.999c-32 0 -59.333 11.667 -82 35
c-23.333 23.333 -35 51.333 -35 84c0 31.333 11.667 59 35 83c23.333 23.333 50.666 35 81.999 35s59 -11.667 83 -35c24 -24 36 -51.667 36 -83c0 -30.667 -12 -58.334 -36 -83.001zM955.004 -684.001c-24 -24 -51.667 -35.999 -83 -35.999c-32 0 -59.333 11.667 -82 35
c-23.333 23.333 -35 51.333 -35 84c0 31.333 11.667 59 35 83c24 24 51.333 36 82 36c31.333 0 59 -12 83 -36s36 -51.667 36 -83c0 -30.667 -12 -58.334 -36 -83.001z" />
    <glyph glyph-name="uniFB58" unicode="&#x67e;" horiz-adv-x="623" arabic-form="initial" 
d="M546 313c0 -76.667 -26.666 -146 -79.999 -208c-54.667 -63.333 -118.334 -95 -191.001 -95h-300v171h240c67.333 0 113.333 17.333 138 52l1 1c10 17.333 15 53 15 107v252h177v-280zM564.001 -229c24 -24 36 -51.333 36 -82c0 -32 -12 -59.667 -36 -83
c-24 -24 -52 -36 -84 -36s-59.667 12 -83 36c-23.333 23.333 -35 51 -35 83c0 31.333 11.667 59 35 83c23.333 23.333 51 35 83 35c31.333 0 59.333 -12 84 -36zM253.001 -394c-24 -24 -51.666 -35.999 -82.999 -35.999c-32 0 -59.333 11.667 -82 35
c-23.333 23.333 -35 51.333 -35 84c0 31.333 11.667 59 35 83c23.333 23.333 50.666 35 81.999 35s59 -11.667 83 -35c24 -24 36 -51.667 36 -83c0 -30.667 -12 -58.334 -36 -83.001zM401.002 -685.999c-24 -24 -51.667 -35.999 -83 -35.999c-32 0 -59.333 11.667 -82 35
c-23.333 23.333 -35 51.333 -35 84c0 31.333 11.667 59 35 83c24 24 51.333 36 82 36c31.333 0 59 -12 83 -36s36 -51.667 36 -83c0 -30.667 -12 -58.334 -36 -83.001z" />
    <glyph glyph-name="uniFB59" unicode="&#x67e;" horiz-adv-x="785" arabic-form="medial" 
d="M315 181c58 0 97.667 11.665 119 34.998c20.667 22.667 31 64.334 31 125.001v252h174v-252c0 -64 12.667 -107 38 -129c23.333 -19.333 69.333 -29.666 138 -30.999v-171l-102 4l-55 8l-42 21l-60 48c-64.667 -54 -126 -81 -184 -81h-401v171h344zM664 -220.002
c24 -24 36 -51.333 36 -82c0 -32 -12 -59.667 -36 -83c-24 -24 -52 -36 -84 -36s-59.667 12 -83 36c-23.333 23.333 -35 51 -35 83c0 31.333 11.667 59 35 83c23.333 23.333 51 35 83 35c31.333 0 59.333 -12 84 -36zM353 -385.002c-24 -24 -51.666 -35.999 -82.999 -35.999
c-32 0 -59.333 11.667 -82 35c-23.333 23.333 -35 51.333 -35 84c0 31.333 11.667 59 35 83c23.333 23.333 50.666 35 81.999 35s59 -11.667 83 -35c24 -24 36 -51.667 36 -83c0 -30.667 -12 -58.334 -36 -83.001zM501.001 -677.001c-24 -24 -51.667 -35.999 -83 -35.999
c-32 0 -59.333 11.667 -82 35c-23.333 23.333 -35 51.333 -35 84c0 31.333 11.667 59 35 83c24 24 51.333 36 82 36c31.333 0 59 -12 83 -36s36 -51.667 36 -83c0 -30.667 -12 -58.334 -36 -83.001z" />
    <glyph glyph-name="uniFB7B" unicode="&#x686;" horiz-adv-x="1270" arabic-form="final" 
d="M1310 10c-85.333 1.33301 -151 10.334 -197 27.001c-54 19.333 -92 53 -114 101l-29 105l-389 -217c-173.333 -98 -260 -220.333 -260 -367c0 -105.333 43.667 -199 131 -281c87.333 -81.333 179.666 -122 276.999 -122h551l14 -175h-515
c-197.333 0 -358.333 71.333 -483 214c-90.667 111.333 -136 234.666 -136 369.999v39l4 42c18 174.667 108.333 304.334 271 389.001l601 329c-34 62 -81 99 -141 111c-52.667 10 -220.667 15 -504 15l-25 166h451c124.667 0 220.667 -32.333 288 -97
c68.667 -64.667 103.334 -158.334 104.001 -281.001l-177 -101c6 -42 34.667 -69 86 -81c44 -10 108 -15 192 -15v-171zM1075 -155.999c24 -24 36 -51.333 36 -82c0 -32 -12 -59.667 -36 -83c-24 -24 -52 -36 -84 -36s-59.667 12 -83 36c-23.333 23.333 -35 51 -35 83
c0 31.333 11.667 59 35 83c23.333 23.333 51 35 83 35c31.333 0 59.333 -12 84 -36zM764 -320.999c-24 -24 -51.666 -35.999 -82.999 -35.999c-32 0 -59.333 11.667 -82 35c-23.333 23.333 -35 51.333 -35 84c0 31.333 11.667 59 35 83c23.333 23.333 50.666 35 81.999 35
s59 -11.667 83 -35c24 -24 36 -51.667 36 -83c0 -30.667 -12 -58.334 -36 -83.001zM912.001 -612.998c-24 -24 -51.667 -35.999 -83 -35.999c-32 0 -59.333 11.667 -82 35c-23.333 23.333 -35 51.333 -35 84c0 31.333 11.667 59 35 83c24 24 51.333 36 82 36
c31.333 0 59 -12 83 -36s36 -51.667 36 -83c0 -30.667 -12 -58.334 -36 -83.001z" />
    <glyph glyph-name="uniFB7C" unicode="&#x686;" horiz-adv-x="1099" arabic-form="initial" 
d="M615 131c-94 -53.333 -182.667 -87 -266 -101c-80 -13.333 -207.667 -20 -383 -20v171h142c74.667 0 124 3.33301 148 10c80.667 9.33301 156.667 30 228 62c47.333 20 111 54.667 191 104l190 104c-20 57.333 -67.667 95.333 -143 114c-58 10 -221 15 -489 15l-25 166
h462c252 0 379 -126 381 -378zM836 -207c24 -24 36 -51.333 36 -82c0 -32 -12 -59.667 -36 -83c-24 -24 -52 -36 -84 -36s-59.667 12 -83 36c-23.333 23.333 -35 51 -35 83c0 31.333 11.667 59 35 83c23.333 23.333 51 35 83 35c31.333 0 59.333 -12 84 -36zM525 -372
c-24 -24 -51.666 -35.999 -82.999 -35.999c-32 0 -59.333 11.667 -82 35c-23.333 23.333 -35 51.333 -35 84c0 31.333 11.667 59 35 83c23.333 23.333 50.666 35 81.999 35s59 -11.667 83 -35c24 -24 36 -51.667 36 -83c0 -30.667 -12 -58.334 -36 -83.001z
M673.001 -663.999c-24 -24 -51.667 -35.999 -83 -35.999c-32 0 -59.333 11.667 -82 35c-23.333 23.333 -35 51.333 -35 84c0 31.333 11.667 59 35 83c24 24 51.333 36 82 36c31.333 0 59 -12 83 -36s36 -51.667 36 -83c0 -30.667 -12 -58.334 -36 -83.001z" />
    <glyph glyph-name="uniFB7D" unicode="&#x686;" horiz-adv-x="1099" arabic-form="medial" 
d="M1120 10c-96 0.666992 -166.333 12.3311 -211 34.998c-26.667 12.667 -51 41.334 -73 86.001l-25 113c-120 -79.333 -252 -145.666 -396 -198.999c-89.333 -23.333 -239 -35 -449 -35v171h142c74.667 0 124 3.33301 148 10c80.667 9.33301 156.667 30 228 62
c47.333 20 111 54.667 191 104l190 104c-20 57.333 -67.667 95.333 -143 114c-58 10 -221 15 -489 15l-25 166h462c122.667 0 216.667 -32.667 282 -98c64.667 -65.333 97.667 -159.333 99 -282l-178 -98v-6c0 -60 82.333 -90.333 247 -91v-171zM814 -207.003
c24 -24 36 -51.333 36 -82c0 -32 -12 -59.667 -36 -83c-24 -24 -52 -36 -84 -36s-59.667 12 -83 36c-23.333 23.333 -35 51 -35 83c0 31.333 11.667 59 35 83c23.333 23.333 51 35 83 35c31.333 0 59.333 -12 84 -36zM503 -372.003c-24 -24 -51.666 -35.999 -82.999 -35.999
c-32 0 -59.333 11.667 -82 35c-23.333 23.333 -35 51.333 -35 84c0 31.333 11.667 59 35 83c23.333 23.333 50.666 35 81.999 35s59 -11.667 83 -35c24 -24 36 -51.667 36 -83c0 -30.667 -12 -58.334 -36 -83.001zM651.001 -664.002c-24 -24 -51.667 -35.999 -83 -35.999
c-32 0 -59.333 11.667 -82 35c-23.333 23.333 -35 51.333 -35 84c0 31.333 11.667 59 35 83c24 24 51.333 36 82 36c31.333 0 59 -12 83 -36s36 -51.667 36 -83c0 -30.667 -12 -58.334 -36 -83.001z" />
    <glyph glyph-name="uniFB8B" unicode="&#x698;" horiz-adv-x="976" arabic-form="final" 
d="M998 10c-85.333 2 -147.333 31.333 -186 88l-19 28v-35c0 -172.667 -49 -316 -147 -430c-90.667 -90.667 -200 -136 -328 -136h-239l-31 168h252c80.667 0 154.667 27.667 222 83c66.667 56.667 100 126.667 100 210v607h168v-266c0 -95.333 69.333 -144 208 -146v-171z
M839 1000c24.667 -24.667 37 -52.333 37 -83c0 -32 -12 -59.667 -36 -83s-52 -35 -84 -35s-59.667 11.667 -83 35s-35 51 -35 83c0 31.333 11.667 59 35 83c24 24 51.667 36 83 36s59 -12 83 -36zM529 834.001c-24 -23.333 -51.667 -35 -83 -35c-32 0 -59.333 11.667 -82 35
c-23.333 23.333 -35 51 -35 83c0 31.333 11.667 59 35 83c24 24 51.333 36 82 36c31.333 0 59 -12 83 -36s36 -51.667 36 -83s-12 -59 -36 -83zM677 1126c-24 -24 -51.668 -35.999 -83.001 -35.999s-58.666 12 -81.999 36c-23.333 23.333 -35 51 -35 83
c0 31.333 11.667 59 35 83c24 24 51.333 36 82 36c31.333 0 59 -12 83 -36s36 -51.667 36 -83c0 -30.667 -12 -58.334 -36 -83.001z" />
    <glyph glyph-name="uniFB8F" unicode="&#x6a9;" horiz-adv-x="1876" arabic-form="final" 
d="M1916 10c-134.667 2 -237.333 51.334 -308 148.001c-36 -98.667 -117.667 -148 -245 -148h-1008c-74 0 -136.667 31.333 -188 94c-50 60 -75 129.667 -75 209v280h173v-252c0 -60.667 10.667 -102.334 32 -125.001c22 -23.333 62.333 -35 121 -35h934
c70.667 0 106 26.667 106 80c0 28.667 -15.333 60.667 -46 96l-468 522l-32 176l720 277l26 -153l-565 -210l535 -605l139 -140c42 -28 91.667 -42.333 149 -43v-171z" />
    <glyph glyph-name="uniFB90" unicode="&#x6a9;" horiz-adv-x="898" arabic-form="initial" 
d="M758 407c35.333 -43.333 53 -93.002 53 -149.002c0 -57.333 -24 -113.666 -72 -168.999c-52.667 -52.667 -127.667 -79 -225 -79h-548v171h548c80 0 120 27 120 81c0 24.667 -12.667 54.334 -38 89.001l-505 528l-35 190l750 270l20 -164l-569 -211z" />
    <glyph glyph-name="uniFB91" unicode="&#x6a9;" horiz-adv-x="1103" arabic-form="medial" 
d="M784 175c-25.333 -63.333 -51.333 -105.333 -78 -126c-33.333 -26 -87 -39 -161 -39h-564v171h543c73.333 0 110 27 110 81c0 28 -15.333 59.667 -46 95l-479 521l-28 205l739 263l27 -171l-573 -211l544 -600c75.333 -84 132 -138 170 -162l53 -17l72 -3v-172
c-147.333 2 -253.333 52 -318 150z" />
    <glyph glyph-name="uniFB93" unicode="&#x6af;" horiz-adv-x="1876" arabic-form="final" 
d="M1916 10c-134.667 2 -237.333 51.334 -308 148.001c-36 -98.667 -117.667 -148 -245 -148h-1008c-74 0 -136.667 31.333 -188 94c-50 60 -75 129.667 -75 209v280h173v-252c0 -60.667 10.667 -102.334 32 -125.001c22 -23.333 62.333 -35 121 -35h934
c70.667 0 106 26.667 106 80c0 28.667 -15.333 60.667 -46 96l-468 522l-32 185l720 268l26 -153l-565 -210l535 -605l139 -140c42 -28 91.667 -42.333 149 -43v-171zM892.001 1177l-14 87l735 273l4 -83z" />
    <glyph glyph-name="uniFB94" unicode="&#x6af;" horiz-adv-x="873" arabic-form="initial" 
d="M62 1222l-6 78l714 252l2 -74zM758 407c35.333 -43.333 53 -93.002 53 -149.002c0 -57.333 -24 -113.666 -72 -168.999c-52.667 -52.667 -127.667 -79 -225 -79h-548v171h548c80 0 120 27 120 81c0 24.667 -12.667 54.334 -38 89.001l-505 528l-36 204l749 262l22 -170
l-569 -211z" />
    <glyph glyph-name="uniFB95" unicode="&#x6af;" horiz-adv-x="1099" arabic-form="medial" 
d="M86 1215l-9 61l706 252l6 -57zM784 175c-25.333 -63.333 -51.333 -105.333 -78 -126c-33.333 -26 -87 -39 -161 -39h-564v171h543c73.333 0 110 27 110 81c0 28 -15.333 59.667 -46 95l-479 521l-28 205l739 263l27 -171l-573 -211l544 -600
c75.333 -84 132 -138 170 -162l53 -17l72 -3v-172c-147.333 2 -253.333 52 -318 150z" />
    <glyph glyph-name="uniFBA4" unicode="&#x6c0;" horiz-adv-x="863" arabic-form="isolated" 
d="M571 204c36.667 35.333 55 77.333 55 126c0 44 -10 78.333 -30 103l-164 172c-68.667 -68.667 -118 -122.667 -148 -162l-2 -1l-21 -42l-13 -68c0 -26 14.667 -62.667 44 -110v-3c39.333 -45.333 89.333 -68 150 -68c50 0 93 17.667 129 53zM709 555
c58.667 -73.333 88 -151.332 88 -233.999c0 -84 -35.667 -160.667 -107 -230s-155 -104 -251 -104c-98 0 -181 35.333 -249 106c-68 71.333 -102 155.666 -102 252.999c0 68.667 20.333 137.667 61 207l60 76l102 99l-57 67l116 116zM359 1241
c17.333 -10.667 38.667 -15.999 64 -15.999h1c29.333 0 78 13.333 146 40l29 -69l-364 -132l-20 65l94 36c-38.667 36 -58 69.333 -58 100c0 47.333 17.667 89.333 53 126c35.333 35.333 76 53.666 122 54.999c37.333 0 72.666 -14.667 105.999 -44l-43 -63
c-19.333 17.333 -42.666 26 -69.999 26c-24 0 -44.333 -6.66699 -61 -20c-18 -13.333 -27 -31 -27 -53s9.33301 -39 28 -51z" />
    <glyph glyph-name="uniFBA5" unicode="&#x6c0;" horiz-adv-x="1186" arabic-form="final" 
d="M624 204c41.333 36.667 62 78.002 62 124.002c0 38 -12 76 -36 114l-162 163l-7 -8c-72.667 -66.667 -119.667 -117.334 -141 -152.001c-22 -34.667 -33 -71 -33 -109c0 -38.667 15.333 -78.334 46 -119.001c32 -44 78.333 -66 139 -66c48 0 92 17.667 132 53z
M489 -12.998c-96 0 -179.331 34.666 -249.998 103.999c-70 69.333 -105 154.333 -105 255c0 67.333 24 136.333 72 207c20.667 32.667 73 91 157 175l-56 66l117 117l567 -603c53.333 -55.333 89.333 -90.666 108 -105.999l2 -1c26 -12 65 -18.667 117 -20v-171
c-90.667 0.666992 -147 12 -169 34h-1c-10.667 4 -80.334 64 -209.001 180c-72.667 -158 -189.334 -237 -350.001 -237zM410.002 1209c17.333 -10.667 38.667 -15.999 64 -15.999h1c29.333 0 78 13.333 146 40l29 -69l-364 -132l-20 65l94 36c-38.667 36 -58 69.333 -58 100
c0 47.333 17.667 89.333 53 126c35.333 35.333 76 53.666 122 54.999c37.333 0 72.666 -14.667 105.999 -44l-43 -63c-19.333 17.333 -42.666 26 -69.999 26c-24 0 -44.333 -6.66699 -61 -20c-18 -13.333 -27 -31 -27 -53s9.33301 -39 28 -51z" />
    <glyph glyph-name="uniFBA6" unicode="&#x6c1;" horiz-adv-x="491" arabic-form="isolated" 
d="M581 204c36.667 35.333 55 77.333 55 126c0 44 -10 78.333 -30 103l-164 172c-68.667 -68.667 -118 -122.667 -148 -162l-2 -1l-21 -42l-13 -68c0 -26 14.667 -62.667 44 -110v-3c39.333 -45.333 89.333 -68 150 -68c50 0 93 17.667 129 53zM719 555
c58.667 -73.333 88 -151.332 88 -233.999c0 -84 -35.667 -160.667 -107 -230s-155 -104 -251 -104c-98 0 -181 35.333 -249 106c-68 71.333 -102 155.666 -102 252.999c0 68.667 20.333 137.667 61 207l60 76l102 99l-57 67l116 116z" />
    <glyph glyph-name="uniFBAB" unicode="&#x6be;" horiz-adv-x="851" arabic-form="final" 
d="M554 289c-2.66699 -55.333 -28.333 -115.668 -77 -181.001l15 -14c61.333 58 122.666 87 183.999 87h194v-171h-136c-52 0 -97.333 -15 -136 -45c-40.667 -31.333 -61 -70.666 -61 -117.999l3 -32l43 -188l-165 -50l-49 237l-4 38c0 65.333 30.333 133 91 203l-16 14
c-45.333 -39.333 -101.666 -59 -168.999 -59h-322v171h261c62.667 0 112 18 148 54c15.333 19.333 28 57 38 113l32 199l172 -30z" />
    <glyph glyph-name="uniFBE5" unicode="&#x6d0;" horiz-adv-x="1029" arabic-form="final" 
d="M1217 10l8.99902 -103c0 -106 -42.333 -196.333 -127 -271c-82 -74 -176 -111 -282 -111h-298c-142 0 -258.333 54.333 -349 163c-76.667 103.333 -115 230.333 -115 381v331h174v-408c0 -69.333 24 -134 72 -194l1 -1c64 -69.333 151 -104 261 -104h245
c65.333 0 123 19 173 57c48.667 38 73 94 73 168c0 41.333 -32.333 67.333 -97 78c-53.333 9.33301 -152.666 14 -297.999 14l-14 171h749v-171h-177z" />
    <glyph glyph-name="uniFBFD" unicode="&#x6cc;" horiz-adv-x="1373" arabic-form="final" 
d="M1217 10l8.99902 -103c0 -106 -42.333 -196.333 -127 -271c-82 -74 -176 -111 -282 -111h-298c-142 0 -258.333 54.333 -349 163c-76.667 103.333 -115 230.333 -115 381v331h174v-408c0 -69.333 24 -134 72 -194l1 -1c64 -69.333 151 -104 261 -104h245
c65.333 0 123 19 173 57c48.667 38 73 94 73 168c0 41.333 -32.333 67.333 -97 78c-53.333 9.33301 -152.666 14 -297.999 14l-14 171h749v-171h-177z" />
    <glyph glyph-name="uniFBFE" unicode="&#x6cc;" horiz-adv-x="623" arabic-form="initial" 
d="M546 313c0 -76.667 -26.666 -146 -79.999 -208c-54.667 -63.333 -118.334 -95 -191.001 -95h-300v171h240c67.333 0 113.333 17.333 138 52l1 1c10 17.333 15 53 15 107v252h177v-280zM247.001 -230c24 -24 36 -51.668 36 -83.001c0 -27.333 -11 -53.666 -33 -78.999
c-22.667 -25.333 -47 -38 -73 -38c-87.333 0 -131 43.667 -131 131c0 24.667 13.333 48.667 40 72c25.333 22 51.333 33 78 33c31.333 0 59 -12 83 -36zM540.001 -230.001c24.667 -24.667 37.001 -52.334 37.001 -83.001c0 -27.333 -11 -53.666 -33 -78.999
c-22.667 -25.333 -47 -38 -73 -38c-88 0 -132 43.667 -132 131c0 26 13 50 39 72c25.333 22 51.666 33 78.999 33c31.333 0 59 -12 83 -36z" />
    <glyph glyph-name="uniFBFF" unicode="&#x6cc;" horiz-adv-x="785" arabic-form="medial" 
d="M315 181c58 0 97.667 11.665 119 34.998c20.667 22.667 31 64.334 31 125.001v252h174v-252c0 -64 12.667 -107 38 -129c23.333 -19.333 69.333 -29.666 138 -30.999v-171l-102 4l-55 8l-42 21l-60 48c-64.667 -54 -126 -81 -184 -81h-401v171h344zM321 -226.002
c24 -24 36 -51.668 36 -83.001c0 -27.333 -11 -53.666 -33 -78.999c-22.667 -25.333 -47 -38 -73 -38c-87.333 0 -131 43.667 -131 131c0 24.667 13.333 48.667 40 72c25.333 22 51.333 33 78 33c31.333 0 59 -12 83 -36zM614 -226.003
c24.667 -24.667 37.001 -52.334 37.001 -83.001c0 -27.333 -11 -53.666 -33 -78.999c-22.667 -25.333 -47 -38 -73 -38c-88 0 -132 43.667 -132 131c0 26 13 50 39 72c25.333 22 51.666 33 78.999 33c31.333 0 59 -12 83 -36z" />
    <glyph glyph-name="uniFC5D" unicode="&#xfc5d;" horiz-adv-x="1373" arabic-form="isolated" 
d="M692 350c0 88 32.333 165.335 97 232.002c65.333 66.667 141.666 100 228.999 100h224l9 -157h-225c-68 0 -118.667 -33.667 -152 -101l-1 -1c-16 -57.333 -24 -131 -24 -221v-11h11c168.667 0 283.334 -14.667 344.001 -44c64.667 -34.667 97 -104.334 97 -209.001
c0 -82.667 -12 -148 -36 -196l-1 -1c-14 -54.667 -49 -108.667 -105 -162c-89.333 -85.333 -196.333 -128 -321 -128h-296c-119.333 0 -224 49 -314 147c-87.333 95.333 -131 208.666 -131 339.999v383h159v-408c0 -87.333 38.333 -163.333 115 -228
c63.333 -44.667 133 -67 209 -67h250c68.667 0 135 23 199 69c70 60 105 124 105 192c0 70 -26.667 113.667 -80 131c-52 16 -172.667 24 -362 24v316zM406 628.002v275h67v-275h-67z" />
    <glyph glyph-name="uniFC5E" unicode="&#xfc5e;" arabic-form="isolated" 
d="M-34 120l-0.000976562 103.002h60v-103c0 -29.333 19.333 -44 58 -44h10c26 1.33301 39 13.666 39 36.999v110h63v-99c-2 -34.667 -8.33301 -57.334 -19 -68.001h-1c-20 -23.333 -45.667 -35 -77 -35h-5c-34.667 0 -66.667 14.667 -96 44
c-17.333 -32 -46.666 -48 -87.999 -48c-74.667 0 -112 35.667 -112 107v99h60v-104c3.33301 -26 22 -39 56 -39c34.667 0 52 13.333 52 40zM-34.001 780.002c27.333 30 61.333 44.999 102 44.999c38 0 71.333 -13.667 100 -41s43 -59.666 43 -96.999v-7
c0 -69.333 -25.667 -120.666 -77 -153.999l-333 -188l-40 66c12 6.66699 31 18.667 57 36c19.333 12.667 29 29 29 49c0 24.667 -14.333 38 -43 40h-7c-26 0 -56 -3.33301 -90 -10l-9 68c27.333 4.66699 54 7 80 7c44 0 76 -8.33301 96 -25c20 -17.333 31 -46 33 -86l107 65
c-59.333 31.333 -89 73.666 -89 126.999c0 41.333 13.667 76.333 41 105zM117.999 727.001c-14.667 14.667 -31.333 22 -50 22c-20 0 -37 -7 -51 -21c-14 -14.667 -21 -32 -21 -52c0 -19.333 7 -36 21 -50c14.667 -14 31.667 -21 51 -21c20 0 37 7 51 21
c14 13.333 21 30 21 50c0 19.333 -7.33301 36.333 -22 51z" />
    <glyph glyph-name="uniFC5F" unicode="&#xfc5f;" arabic-form="isolated" 
d="M-32 477l-0.000976562 103.002h60v-103c0 -29.333 19.333 -44 58 -44h10c26 1.33301 39 13.666 39 36.999v110h63v-99c-2 -34.667 -8.33301 -57.334 -19 -68.001h-1c-20 -23.333 -45.667 -35 -77 -35h-5c-34.667 0 -66.667 14.667 -96 44
c-17.333 -32 -46.666 -48 -87.999 -48c-74.667 0 -112 35.667 -112 107v99h60v-104c3.33301 -26 22 -39 56 -39c34.667 0 52 13.333 52 40zM202.999 175.002v-61l-437 -111v58zM202.999 326.002v-61l-437 -111v59z" />
    <glyph glyph-name="uniFC60" unicode="&#xfc60;" arabic-form="isolated" 
d="M-34 120l-0.000976562 103.002h60v-103c0 -29.333 19.333 -44 58 -44h10c26 1.33301 39 13.666 39 36.999v110h63v-99c-2 -34.667 -8.33301 -57.334 -19 -68.001h-1c-20 -23.333 -45.667 -35 -77 -35h-5c-34.667 0 -66.667 14.667 -96 44
c-17.333 -32 -46.666 -48 -87.999 -48c-74.667 0 -112 35.667 -112 107v99h60v-104c3.33301 -26 22 -39 56 -39c34.667 0 52 13.333 52 40zM199.999 528.002v-61l-437 -111v59z" />
    <glyph glyph-name="uniFC61" unicode="&#xfc61;" arabic-form="isolated" 
d="M-34 120l-0.000976562 103.002h60v-103c0 -29.333 19.333 -44 58 -44h10c26 1.33301 39 13.666 39 36.999v110h63v-99c-2 -34.667 -8.33301 -57.334 -19 -68.001h-1c-20 -23.333 -45.667 -35 -77 -35h-5c-34.667 0 -66.667 14.667 -96 44
c-17.333 -32 -46.666 -48 -87.999 -48c-74.667 0 -112 35.667 -112 107v99h60v-104c3.33301 -26 22 -39 56 -39c34.667 0 52 13.333 52 40zM-46.001 779.002c28 30 62 44.999 102 44.999c38 0 71 -13.667 99 -41c28.667 -28 43 -60.667 43 -98v-6
c0 -68.667 -25.333 -120 -76 -154l-334 -188l-40 66l254 143l-17 9c-48.667 24.667 -73 64.334 -73 119.001c0 40.667 14 75.667 42 105zM105.999 726.001c-14 14 -30.667 21 -50 21s-36.333 -7 -51 -21c-14.667 -14.667 -22 -31.667 -22 -51c0 -20 7.33301 -36.667 22 -50
c14 -14 31 -21 51 -21s37 7 51 21c13.333 14 20 30.667 20 50s-7 36.333 -21 51z" />
    <glyph glyph-name="uniFC62" unicode="&#xfc62;" arabic-form="isolated" 
d="M-29 429l-0.000976562 103.002h60v-103c0 -29.333 19.333 -44 58 -44h10c26 1.33301 39 13.666 39 36.999v110h63v-99c-2 -34.667 -8.33301 -57.334 -19 -68.001h-1c-20 -23.333 -45.667 -35 -77 -35h-5c-34.667 0 -66.667 14.667 -96 44
c-17.333 -32 -46.666 -48 -87.999 -48c-74.667 0 -112 35.667 -112 107v99h60v-104c3.33301 -26 22 -39 56 -39c34.667 0 52 13.333 52 40zM212.999 188.002v-61l-437 -111v59z" />
    <glyph glyph-name="uniFC63" unicode="&#xfc63;" arabic-form="isolated" 
d="M-34 120l-0.000976562 103.002h60v-103c0 -29.333 19.333 -44 58 -44h10c26 1.33301 39 13.666 39 36.999v110h63v-99c-2 -34.667 -8.33301 -57.334 -19 -68.001h-1c-20 -23.333 -45.667 -35 -77 -35h-5c-34.667 0 -66.667 14.667 -96 44
c-17.333 -32 -46.666 -48 -87.999 -48c-74.667 0 -112 35.667 -112 107v99h60v-104c3.33301 -26 22 -39 56 -39c34.667 0 52 13.333 52 40zM-31.001 322.002v275h67v-275h-67z" />
    <glyph glyph-name="uniFCF2" unicode="&#xfcf2;" horiz-adv-x="498" arabic-form="medial" 
d="M210 530l-0.000976562 103.002h60v-103c0 -29.333 19.333 -44 58 -44h10c26 1.33301 39 13.666 39 36.999v110h63v-99c-2 -34.667 -8.33301 -57.334 -19 -68.001h-1c-20 -23.333 -45.667 -35 -77 -35h-5c-34.667 0 -66.667 14.667 -96 44
c-17.333 -32 -46.666 -48 -87.999 -48c-74.667 0 -112 35.667 -112 107v99h60v-104c3.33301 -26 22 -39 56 -39c34.667 0 52 13.333 52 40zM441.999 913.002v-61l-437 -111v59zM-13.001 10.002v171h531v-171h-531z" />
    <glyph glyph-name="uniFCF3" unicode="&#xfcf3;" horiz-adv-x="498" arabic-form="medial" 
d="M211 506l-0.000976562 103.002h60v-103c0 -29.333 19.333 -44 58 -44h10c26 1.33301 39 13.666 39 36.999v110h63v-99c-2 -34.667 -8.33301 -57.334 -19 -68.001h-1c-20 -23.333 -45.667 -35 -77 -35h-5c-34.667 0 -66.667 14.667 -96 44
c-17.333 -32 -46.666 -48 -87.999 -48c-74.667 0 -112 35.667 -112 107v99h60v-104c3.33301 -26 22 -39 56 -39c34.667 0 52 13.333 52 40zM219.999 1177c28 30 62 44.999 102 44.999c38 0 71 -13.667 99 -41c28.667 -28 43 -60.667 43 -98v-6
c0 -68.667 -25.333 -120 -76 -154l-334 -188l-40 66l254 143l-17 9c-48.667 24.667 -73 64.334 -73 119.001c0 40.667 14 75.667 42 105zM371.999 1124c-14 14 -30.667 21 -50 21s-36.333 -7 -51 -21c-14.667 -14.667 -22 -31.667 -22 -51c0 -20 7.33301 -36.667 22 -50
c14 -14 31 -21 51 -21s37 7 51 21c13.333 14 20 30.667 20 50s-7 36.333 -21 51zM-13.001 10.001v171h531v-171h-531z" />
    <glyph glyph-name="uniFCF4" unicode="&#xfcf4;" horiz-adv-x="498" arabic-form="medial" 
d="M218 748l-0.000976562 103.002h60v-103c0 -29.333 19.333 -44 58 -44h10c26 1.33301 39 13.666 39 36.999v110h63v-99c-2 -34.667 -8.33301 -57.334 -19 -68.001h-1c-20 -23.333 -45.667 -35 -77 -35h-5c-34.667 0 -66.667 14.667 -96 44
c-17.333 -32 -46.666 -48 -87.999 -48c-74.667 0 -112 35.667 -112 107v99h60v-104c3.33301 -26 22 -39 56 -39c34.667 0 52 13.333 52 40zM458.999 517.002v-61l-437 -111v59zM-13.001 10.002v171h531v-171h-531z" />
    <glyph glyph-name="uniFE71" unicode="&#xfe71;" horiz-adv-x="498" arabic-form="medial" 
d="M475 582v-61l-437 -111v59zM475 733v-61l-437 -111v59zM-13 10v171h531v-171h-531z" />
    <glyph glyph-name="uniFE77" unicode="&#xfe77;" horiz-adv-x="498" arabic-form="medial" 
d="M461 627v-61l-437 -111v59zM-13 10v171h531v-171h-531z" />
    <glyph glyph-name="uniFE79" unicode="&#xfe79;" horiz-adv-x="498" arabic-form="medial" 
d="M226 907c28 30 62 44.999 102 44.999c38 0 71 -13.667 99 -41c28.667 -28 43 -60.667 43 -98v-6c0 -68.667 -25.333 -120 -76 -154l-334 -188l-40 66l254 143l-17 9c-48.667 24.667 -73 64.334 -73 119.001c0 40.667 14 75.667 42 105zM378 853.999
c-14 14 -30.667 21 -50 21s-36.333 -7 -51 -21c-14.667 -14.667 -22 -31.667 -22 -51c0 -20 7.33301 -36.667 22 -50c14 -14 31 -21 51 -21s37 7 51 21c13.333 14 20 30.667 20 50s-7 36.333 -21 51zM-13 9.99902v171h531v-171h-531z" />
    <glyph glyph-name="uniFE7B" unicode="&#xfe7b;" horiz-adv-x="498" arabic-form="medial" 
d="M464 -253v-61l-437 -111v59zM-13 10v171h531v-171h-531z" />
    <glyph glyph-name="uniFE7D" unicode="&#xfe7d;" horiz-adv-x="498" arabic-form="medial" 
d="M241 630l-0.000976562 103.002h60v-103c0 -29.333 19.333 -44 58 -44h10c26 1.33301 39 13.666 39 36.999v110h63v-99c-2 -34.667 -8.33301 -57.334 -19 -68.001h-1c-20 -23.333 -45.667 -35 -77 -35h-5c-34.667 0 -66.667 14.667 -96 44
c-17.333 -32 -46.666 -48 -87.999 -48c-74.667 0 -112 35.667 -112 107v99h60v-104c3.33301 -26 22 -39 56 -39c34.667 0 52 13.333 52 40zM-13.001 10.002v171h531v-171h-531z" />
    <glyph glyph-name="uniFE7F" unicode="&#xfe7f;" horiz-adv-x="498" arabic-form="medial" 
d="M131 791c35.333 38.667 78 58 128 58h8c49.333 0 91.666 -19.667 126.999 -59c34 -38 51 -82.667 51 -134c0 -52.667 -17.333 -97.334 -52 -134.001c-36 -38 -79.667 -57 -131 -57s-94.666 18.667 -129.999 56c-34.667 36.667 -52 81.334 -52 134.001s17 98 51 136z
M346 738c-23.333 25.333 -50.667 37.999 -82 37.999c-30 0 -56.667 -12.667 -80 -38c-22.667 -25.333 -34 -53.666 -34 -84.999c0 -32.667 11 -60.667 33 -84c22.667 -24.667 49.667 -37 81 -37c32 0 59.333 12.333 82 37c22.667 24 34 52 34 84s-11.333 60.333 -34 85z
M-13.001 9.99902v171h531v-171h-531z" />
    <glyph glyph-name="uniFE80" unicode="&#x621;" horiz-adv-x="799" arabic-form="isolated" 
d="M472 344c-15.333 -14.667 -23.001 -34.001 -23.001 -58.001c0 -22 5.66699 -40.333 17 -55c12 -16.667 28 -25 48 -25c36.667 0 92.334 18 167.001 54l45 -96l-436 -183l-32 90l166 68l-18 11c-47.333 27.333 -71 75 -71 143c3.33301 48.667 23.333 91.334 60 128.001
c37.333 36.667 81 55 131 55c46.667 0 88.334 -15.667 125.001 -47l-43 -91c-30.667 18.667 -56.334 28 -77.001 28c-24 0 -43.667 -7.33301 -59 -22z" />
    <glyph glyph-name="uniFE82" unicode="&#x622;" horiz-adv-x="550" arabic-form="final" 
d="M166 1350c-50 0 -87.667 -12.665 -113 -37.998c-24.667 -24.667 -47.667 -57.334 -69 -98.001l-130 48c40.667 95.333 75.667 154 105 176c50 41.333 115.333 62.666 196 63.999h407v-152h-396zM353 377.002c0 -58 3.66699 -98.334 11 -121.001
c10.667 -33.333 33 -54.666 67 -63.999c20 -5.33301 66 -9 138 -11v-171c-158.667 0.666992 -267 31 -325 91c-42 45.333 -63 110.333 -63 195v898h172v-817z" />
    <glyph glyph-name="uniFE84" unicode="&#x623;" horiz-adv-x="550" arabic-form="final" 
d="M229 1494c17.333 -10.667 38.667 -15.999 64 -15.999h1c29.333 0 78 13.333 146 40l29 -69l-364 -132l-20 65l94 36c-38.667 36 -58 69.333 -58 100c0 47.333 17.667 89.333 53 126c35.333 35.333 76 53.666 122 54.999c37.333 0 72.666 -14.667 105.999 -44l-43 -63
c-19.333 17.333 -42.666 26 -69.999 26c-24 0 -44.333 -6.66699 -61 -20c-18 -13.333 -27 -31 -27 -53s9.33301 -39 28 -51zM353.001 377.001c0 -58 3.66699 -98.334 11 -121.001c10.667 -33.333 33 -54.666 67 -63.999c20 -5.33301 66 -9 138 -11v-171
c-158.667 0.666992 -267 31 -325 91c-42 45.333 -63 110.333 -63 195v898h172v-817z" />
    <glyph glyph-name="uniFE86" unicode="&#x624;" horiz-adv-x="951" arabic-form="final" 
d="M650 10c-164 0 -283.001 23.667 -357.001 71c-86 54.667 -129 151 -129 289c0 152.667 37.667 262.334 113 329.001c48 38 121.667 57 221 57c142.667 0 241.334 -59.333 296.001 -178c31.333 -74.667 47 -203.667 47 -387v-10h130v-171h-130v-10
c0 -90.667 -23 -173 -69 -247c-40.667 -66.667 -95.667 -120.334 -165 -161.001c-76 -44.667 -159 -67 -249 -67h-238l-26 168h233c98 0 178 31 240 93s93 133.333 93 214v10h-10zM668.999 375c0 62 -15.667 112.333 -47 151c-32.667 40.667 -77.667 61 -135 61
c-98.667 0 -148 -69 -148 -207c0 -78.667 21.667 -132 65 -160c41.333 -26 126 -39 254 -39h11v194zM417.999 1090c17.333 -10.667 38.667 -15.999 64 -15.999h1c29.333 0 78 13.333 146 40l29 -69l-364 -132l-20 65l94 36c-38.667 36 -58 69.333 -58 100
c0 47.333 17.667 89.333 53 126c35.333 35.333 76 53.666 122 54.999c37.333 0 72.666 -14.667 105.999 -44l-43 -63c-19.333 17.333 -42.666 26 -69.999 26c-24 0 -44.333 -6.66699 -61 -20c-18 -13.333 -27 -31 -27 -53s9.33301 -39 28 -51z" />
    <glyph glyph-name="uniFE88" unicode="&#x625;" horiz-adv-x="550" arabic-form="final" 
d="M353 377c0 -58 3.66699 -98.334 11 -121.001c10.667 -33.333 33 -54.666 67 -63.999c20 -5.33301 66 -9 138 -11v-171c-158.667 0.666992 -267 31 -325 91c-42 45.333 -63 110.333 -63 195v898h172v-817zM252 -336.001c17.333 -10.667 38.667 -15.999 64 -15.999h1
c29.333 0 78 13.333 146 40l29 -69l-364 -132l-20 65l94 36c-38.667 36 -58 69.333 -58 100c0 47.333 17.667 89.333 53 126c35.333 35.333 76 53.666 122 54.999c37.333 0 72.666 -14.667 105.999 -44l-43 -63c-19.333 17.333 -42.666 26 -69.999 26
c-24 0 -44.333 -6.66699 -61 -20c-18 -13.333 -27 -31 -27 -53s9.33301 -39 28 -51z" />
    <glyph glyph-name="uniFE8A" unicode="&#x626;" horiz-adv-x="1373" arabic-form="final" 
d="M1217 10l8.99902 -103c0 -106 -42.333 -196.333 -127 -271c-82 -74 -176 -111 -282 -111h-298c-142 0 -258.333 54.333 -349 163c-76.667 103.333 -115 230.333 -115 381v331h174v-408c0 -69.333 24 -134 72 -194l1 -1c64 -69.333 151 -104 261 -104h245
c65.333 0 123 19 173 57c48.667 38 73 94 73 168c0 41.333 -32.333 67.333 -97 78c-53.333 9.33301 -152.666 14 -297.999 14l-14 171h749v-171h-177zM489.999 796c17.333 -10.667 38.667 -15.999 64 -15.999h1c29.333 0 78 13.333 146 40l29 -69l-364 -132l-20 65l94 36
c-38.667 36 -58 69.333 -58 100c0 47.333 17.667 89.333 53 126c35.333 35.333 76 53.666 122 54.999c37.333 0 72.666 -14.667 105.999 -44l-43 -63c-19.333 17.333 -42.666 26 -69.999 26c-24 0 -44.333 -6.66699 -61 -20c-18 -13.333 -27 -31 -27 -53s9.33301 -39 28 -51
z" />
    <glyph glyph-name="uniFE8B" unicode="&#x626;" horiz-adv-x="623" arabic-form="initial" 
d="M546 313c0 -76.667 -26.666 -146 -79.999 -208c-54.667 -63.333 -118.334 -95 -191.001 -95h-300v171h240c67.333 0 113.333 17.333 138 52l1 1c10 17.333 15 53 15 107v252h177v-280zM330.001 959c17.333 -10.667 38.667 -15.999 64 -15.999h1
c29.333 0 78 13.333 146 40l29 -69l-364 -132l-20 65l94 36c-38.667 36 -58 69.333 -58 100c0 47.333 17.667 89.333 53 126c35.333 35.333 76 53.666 122 54.999c37.333 0 72.666 -14.667 105.999 -44l-43 -63c-19.333 17.333 -42.666 26 -69.999 26
c-24 0 -44.333 -6.66699 -61 -20c-18 -13.333 -27 -31 -27 -53s9.33301 -39 28 -51z" />
    <glyph glyph-name="uniFE8C" unicode="&#x626;" horiz-adv-x="785" arabic-form="medial" 
d="M378 940c17.333 -10.667 38.667 -15.999 64 -15.999h1c29.333 0 78 13.333 146 40l29 -69l-364 -132l-20 65l94 36c-38.667 36 -58 69.333 -58 100c0 47.333 17.667 89.333 53 126c35.333 35.333 76 53.666 122 54.999c37.333 0 72.666 -14.667 105.999 -44l-43 -63
c-19.333 17.333 -42.666 26 -69.999 26c-24 0 -44.333 -6.66699 -61 -20c-18 -13.333 -27 -31 -27 -53s9.33301 -39 28 -51zM315.001 181.001c58 0 97.667 11.665 119 34.998c20.667 22.667 31 64.334 31 125.001v252h174v-252c0 -64 12.667 -107 38 -129
c23.333 -19.333 69.333 -29.666 138 -30.999v-171l-102 4l-55 8l-42 21l-60 48c-64.667 -54 -126 -81 -184 -81h-401v171h344z" />
    <glyph glyph-name="uniFE8D" unicode="&#x627;" horiz-adv-x="476" arabic-form="isolated" 
d="M220 10v1211h171v-1211h-171z" />
    <glyph glyph-name="uniFE8E" unicode="&#x627;" horiz-adv-x="550" arabic-form="final" 
d="M353 377c0 -58 3.66699 -98.334 11 -121.001c10.667 -33.333 33 -54.666 67 -63.999c20 -5.33301 66 -9 138 -11v-171c-158.667 0.666992 -267 31 -325 91c-42 45.333 -63 110.333 -63 195v898h172v-817z" />
    <glyph glyph-name="uniFE90" unicode="&#x628;" horiz-adv-x="1824" arabic-form="final" 
d="M269 341c0 -59.333 10.6699 -100.668 32.0029 -124.001c22 -24 61.667 -36 119 -36h891c56.667 0 94 7 112 21h1c28 24 42 70.333 42 139v252h173v-252c0 -60.667 18.667 -103 56 -127c31.333 -20.667 82.666 -31.667 153.999 -33v-171l-108 6l-81 11
c-42.667 12.667 -77.334 34.334 -104.001 65.001c-63.333 -54.667 -125 -82 -185 -82h-1010c-72.667 0 -135.334 32 -188.001 96c-50.667 60.667 -76 129.667 -76 207v280h172v-252zM903.003 -225.002c26 -22 39 -46 39 -72c0 -33.333 -9.66699 -63 -29 -89
c-20.667 -28 -46 -42 -76 -42c-88.667 0 -133 43.667 -133 131c0 24.667 13.333 48.667 40 72c26 22 52.333 33 79 33c28 0 54.667 -11 80 -33z" />
    <glyph glyph-name="uniFE91" unicode="&#x628;" horiz-adv-x="623" arabic-form="initial" 
d="M408 -226c26 -22 39 -46 39 -72c0 -33.333 -9.66699 -63 -29 -89c-20.667 -28 -46 -42 -76 -42c-88.667 0 -133 43.667 -133 131c0 24.667 13.333 48.667 40 72c26 22 52.333 33 79 33c28 0 54.667 -11 80 -33zM546 313c0 -76.667 -26.666 -146 -79.999 -208
c-54.667 -63.333 -118.334 -95 -191.001 -95h-300v171h240c67.333 0 113.333 17.333 138 52l1 1c10 17.333 15 53 15 107v252h177v-280z" />
    <glyph glyph-name="uniFE92" unicode="&#x628;" horiz-adv-x="785" arabic-form="medial" 
d="M530 -230c26 -22 39 -46 39 -72c0 -33.333 -9.66699 -63 -29 -89c-20.667 -28 -46 -42 -76 -42c-88.667 0 -133 43.667 -133 131c0 24.667 13.333 48.667 40 72c26 22 52.333 33 79 33c28 0 54.667 -11 80 -33zM315 181c58 0 97.667 11.665 119 34.998
c20.667 22.667 31 64.334 31 125.001v252h174v-252c0 -64 12.667 -107 38 -129c23.333 -19.333 69.333 -29.666 138 -30.999v-171l-102 4l-55 8l-42 21l-60 48c-64.667 -54 -126 -81 -184 -81h-401v171h344z" />
    <glyph glyph-name="uniFE94" unicode="&#x629;" horiz-adv-x="1186" arabic-form="final" 
d="M624 204c41.333 36.667 62 78.002 62 124.002c0 38 -12 76 -36 114l-162 163l-7 -8c-72.667 -66.667 -119.667 -117.334 -141 -152.001c-22 -34.667 -33 -71 -33 -109c0 -38.667 15.333 -78.334 46 -119.001c32 -44 78.333 -66 139 -66c48 0 92 17.667 132 53z
M489 -12.998c-96 0 -179.331 34.666 -249.998 103.999c-70 69.333 -105 154.333 -105 255c0 67.333 24 136.333 72 207c20.667 32.667 73 91 157 175l-56 66l117 117l567 -603c53.333 -55.333 89.333 -90.666 108 -105.999l2 -1c26 -12 65 -18.667 117 -20v-171
c-90.667 0.666992 -147 12 -169 34h-1c-10.667 4 -80.334 64 -209.001 180c-72.667 -158 -189.334 -237 -350.001 -237zM319.002 1268c24 -24 36 -51.668 36 -83.001c0 -27.333 -11 -53.666 -33 -78.999c-22.667 -25.333 -47 -38 -73 -38c-87.333 0 -131 43.667 -131 131
c0 24.667 13.333 48.667 40 72c25.333 22 51.333 33 78 33c31.333 0 59 -12 83 -36zM612.002 1268c24.667 -24.667 37.001 -52.334 37.001 -83.001c0 -27.333 -11 -53.666 -33 -78.999c-22.667 -25.333 -47 -38 -73 -38c-88 0 -132 43.667 -132 131c0 26 13 50 39 72
c25.333 22 51.666 33 78.999 33c31.333 0 59 -12 83 -36z" />
    <glyph glyph-name="uniFE96" unicode="&#x62a;" horiz-adv-x="1824" arabic-form="final" 
d="M269 341c0 -59.333 10.6699 -100.668 32.0029 -124.001c22 -24 61.667 -36 119 -36h891c56.667 0 94 7 112 21h1c28 24 42 70.333 42 139v252h173v-252c0 -60.667 18.667 -103 56 -127c31.333 -20.667 82.666 -31.667 153.999 -33v-171l-108 6l-81 11
c-42.667 12.667 -77.334 34.334 -104.001 65.001c-63.333 -54.667 -125 -82 -185 -82h-1010c-72.667 0 -135.334 32 -188.001 96c-50.667 60.667 -76 129.667 -76 207v280h172v-252zM824.003 990.998c24 -24 36 -51.668 36 -83.001c0 -27.333 -11 -53.666 -33 -78.999
c-22.667 -25.333 -47 -38 -73 -38c-87.333 0 -131 43.667 -131 131c0 24.667 13.333 48.667 40 72c25.333 22 51.333 33 78 33c31.333 0 59 -12 83 -36zM1117 990.997c24.667 -24.667 37.001 -52.334 37.001 -83.001c0 -27.333 -11 -53.666 -33 -78.999
c-22.667 -25.333 -47 -38 -73 -38c-88 0 -132 43.667 -132 131c0 26 13 50 39 72c25.333 22 51.666 33 78.999 33c31.333 0 59 -12 83 -36z" />
    <glyph glyph-name="uniFE97" unicode="&#x62a;" horiz-adv-x="623" arabic-form="initial" 
d="M546 313c0 -76.667 -26.666 -146 -79.999 -208c-54.667 -63.333 -118.334 -95 -191.001 -95h-300v171h240c67.333 0 113.333 17.333 138 52l1 1c10 17.333 15 53 15 107v252h177v-280zM230.001 1012c24 -24 36 -51.668 36 -83.001c0 -27.333 -11 -53.666 -33 -78.999
c-22.667 -25.333 -47 -38 -73 -38c-87.333 0 -131 43.667 -131 131c0 24.667 13.333 48.667 40 72c25.333 22 51.333 33 78 33c31.333 0 59 -12 83 -36zM523.001 1012c24.667 -24.667 37.001 -52.334 37.001 -83.001c0 -27.333 -11 -53.666 -33 -78.999
c-22.667 -25.333 -47 -38 -73 -38c-88 0 -132 43.667 -132 131c0 26 13 50 39 72c25.333 22 51.666 33 78.999 33c31.333 0 59 -12 83 -36z" />
    <glyph glyph-name="uniFE98" unicode="&#x62a;" horiz-adv-x="785" arabic-form="medial" 
d="M315 181c58 0 97.667 11.665 119 34.998c20.667 22.667 31 64.334 31 125.001v252h174v-252c0 -64 12.667 -107 38 -129c23.333 -19.333 69.333 -29.666 138 -30.999v-171l-102 4l-55 8l-42 21l-60 48c-64.667 -54 -126 -81 -184 -81h-401v171h344zM296 990.998
c24 -24 36 -51.668 36 -83.001c0 -27.333 -11 -53.666 -33 -78.999c-22.667 -25.333 -47 -38 -73 -38c-87.333 0 -131 43.667 -131 131c0 24.667 13.333 48.667 40 72c25.333 22 51.333 33 78 33c31.333 0 59 -12 83 -36zM589 990.997
c24.667 -24.667 37.001 -52.334 37.001 -83.001c0 -27.333 -11 -53.666 -33 -78.999c-22.667 -25.333 -47 -38 -73 -38c-88 0 -132 43.667 -132 131c0 26 13 50 39 72c25.333 22 51.666 33 78.999 33c31.333 0 59 -12 83 -36z" />
    <glyph glyph-name="uniFE9A" unicode="&#x62b;" horiz-adv-x="1824" arabic-form="final" 
d="M269 341c0 -59.333 10.6699 -100.668 32.0029 -124.001c22 -24 61.667 -36 119 -36h891c56.667 0 94 7 112 21h1c28 24 42 70.333 42 139v252h173v-252c0 -60.667 18.667 -103 56 -127c31.333 -20.667 82.666 -31.667 153.999 -33v-171l-108 6l-81 11
c-42.667 12.667 -77.334 34.334 -104.001 65.001c-63.333 -54.667 -125 -82 -185 -82h-1010c-72.667 0 -135.334 32 -188.001 96c-50.667 60.667 -76 129.667 -76 207v280h172v-252zM1105 988.998c24.667 -24.667 37 -52.333 37 -83c0 -32 -12 -59.667 -36 -83
s-52 -35 -84 -35s-59.667 11.667 -83 35s-35 51 -35 83c0 31.333 11.667 59 35 83c24 24 51.667 36 83 36s59 -12 83 -36zM795.003 822.999c-24 -23.333 -51.667 -35 -83 -35c-32 0 -59.333 11.667 -82 35c-23.333 23.333 -35 51 -35 83c0 31.333 11.667 59 35 83
c24 24 51.333 36 82 36c31.333 0 59 -12 83 -36s36 -51.667 36 -83s-12 -59 -36 -83zM943.003 1115c-24 -24 -51.668 -35.999 -83.001 -35.999s-58.666 12 -81.999 36c-23.333 23.333 -35 51 -35 83c0 31.333 11.667 59 35 83c24 24 51.333 36 82 36c31.333 0 59 -12 83 -36
s36 -51.667 36 -83c0 -30.667 -12 -58.334 -36 -83.001z" />
    <glyph glyph-name="uniFE9B" unicode="&#x62b;" horiz-adv-x="623" arabic-form="initial" 
d="M546 313c0 -76.667 -26.666 -146 -79.999 -208c-54.667 -63.333 -118.334 -95 -191.001 -95h-300v171h240c67.333 0 113.333 17.333 138 52l1 1c10 17.333 15 53 15 107v252h177v-280zM523.001 1010c24.667 -24.667 37 -52.333 37 -83c0 -32 -12 -59.667 -36 -83
s-52 -35 -84 -35s-59.667 11.667 -83 35s-35 51 -35 83c0 31.333 11.667 59 35 83c24 24 51.667 36 83 36s59 -12 83 -36zM213.001 844.001c-24 -23.333 -51.667 -35 -83 -35c-32 0 -59.333 11.667 -82 35c-23.333 23.333 -35 51 -35 83c0 31.333 11.667 59 35 83
c24 24 51.333 36 82 36c31.333 0 59 -12 83 -36s36 -51.667 36 -83s-12 -59 -36 -83zM361.001 1136c-24 -24 -51.668 -35.999 -83.001 -35.999s-58.666 12 -81.999 36c-23.333 23.333 -35 51 -35 83c0 31.333 11.667 59 35 83c24 24 51.333 36 82 36c31.333 0 59 -12 83 -36
s36 -51.667 36 -83c0 -30.667 -12 -58.334 -36 -83.001z" />
    <glyph glyph-name="uniFE9C" unicode="&#x62b;" horiz-adv-x="785" arabic-form="medial" 
d="M315 181c58 0 97.667 11.665 119 34.998c20.667 22.667 31 64.334 31 125.001v252h174v-252c0 -64 12.667 -107 38 -129c23.333 -19.333 69.333 -29.666 138 -30.999v-171l-102 4l-55 8l-42 21l-60 48c-64.667 -54 -126 -81 -184 -81h-401v171h344zM660 988.998
c24.667 -24.667 37 -52.333 37 -83c0 -32 -12 -59.667 -36 -83s-52 -35 -84 -35s-59.667 11.667 -83 35s-35 51 -35 83c0 31.333 11.667 59 35 83c24 24 51.667 36 83 36s59 -12 83 -36zM350 822.999c-24 -23.333 -51.667 -35 -83 -35c-32 0 -59.333 11.667 -82 35
c-23.333 23.333 -35 51 -35 83c0 31.333 11.667 59 35 83c24 24 51.333 36 82 36c31.333 0 59 -12 83 -36s36 -51.667 36 -83s-12 -59 -36 -83zM498 1115c-24 -24 -51.668 -35.999 -83.001 -35.999s-58.666 12 -81.999 36c-23.333 23.333 -35 51 -35 83
c0 31.333 11.667 59 35 83c24 24 51.333 36 82 36c31.333 0 59 -12 83 -36s36 -51.667 36 -83c0 -30.667 -12 -58.334 -36 -83.001z" />
    <glyph glyph-name="uniFE9E" unicode="&#x62c;" horiz-adv-x="1270" arabic-form="final" 
d="M886 -273c26 -22 39 -46 39 -72c0 -33.333 -9.66699 -63 -29 -89c-20.667 -28 -46 -42 -76 -42c-88.667 0 -133 43.667 -133 131c0 24.667 13.333 48.667 40 72c26 22 52.333 33 79 33c28 0 54.667 -11 80 -33zM1310 10c-85.333 1.33301 -151 10.334 -197 27.001
c-54 19.333 -92 53 -114 101l-29 105l-389 -217c-173.333 -98 -260 -220.333 -260 -367c0 -105.333 43.667 -199 131 -281c87.333 -81.333 179.666 -122 276.999 -122h551l14 -175h-515c-197.333 0 -358.333 71.333 -483 214c-90.667 111.333 -136 234.666 -136 369.999v39
l4 42c18 174.667 108.333 304.334 271 389.001l601 329c-34 62 -81 99 -141 111c-52.667 10 -220.667 15 -504 15l-25 166h451c124.667 0 220.667 -32.333 288 -97c68.667 -64.667 103.334 -158.334 104.001 -281.001l-177 -101c6 -42 34.667 -69 86 -81
c44 -10 108 -15 192 -15v-171z" />
    <glyph glyph-name="uniFE9F" unicode="&#x62c;" horiz-adv-x="1099" arabic-form="initial" 
d="M615 131c-94 -53.333 -182.667 -87 -266 -101c-80 -13.333 -207.667 -20 -383 -20v171h142c74.667 0 124 3.33301 148 10c80.667 9.33301 156.667 30 228 62c47.333 20 111 54.667 191 104l190 104c-20 57.333 -67.667 95.333 -143 114c-58 10 -221 15 -489 15l-25 166
h462c252 0 379 -126 381 -378zM760 -205c26 -22 39 -46 39 -72c0 -33.333 -9.66699 -63 -29 -89c-20.667 -28 -46 -42 -76 -42c-88.667 0 -133 43.667 -133 131c0 24.667 13.333 48.667 40 72c26 22 52.333 33 79 33c28 0 54.667 -11 80 -33z" />
    <glyph glyph-name="uniFEA0" unicode="&#x62c;" horiz-adv-x="1099" arabic-form="medial" 
d="M1120 10c-96 0.666992 -166.333 12.3311 -211 34.998c-26.667 12.667 -51 41.334 -73 86.001l-25 113c-120 -79.333 -252 -145.666 -396 -198.999c-89.333 -23.333 -239 -35 -449 -35v171h142c74.667 0 124 3.33301 148 10c80.667 9.33301 156.667 30 228 62
c47.333 20 111 54.667 191 104l190 104c-20 57.333 -67.667 95.333 -143 114c-58 10 -221 15 -489 15l-25 166h462c122.667 0 216.667 -32.667 282 -98c64.667 -65.333 97.667 -159.333 99 -282l-178 -98v-6c0 -60 82.333 -90.333 247 -91v-171zM672 -224.003
c26 -22 39 -46 39 -72c0 -33.333 -9.66699 -63 -29 -89c-20.667 -28 -46 -42 -76 -42c-88.667 0 -133 43.667 -133 131c0 24.667 13.333 48.667 40 72c26 22 52.333 33 79 33c28 0 54.667 -11 80 -33z" />
    <glyph glyph-name="uniFEA2" unicode="&#x62d;" horiz-adv-x="1270" arabic-form="final" 
d="M1310 10c-85.333 1.33301 -151 10.334 -197 27.001c-54 19.333 -92 53 -114 101l-29 105l-389 -217c-173.333 -98 -260 -220.333 -260 -367c0 -105.333 43.667 -199 131 -281c87.333 -81.333 179.666 -122 276.999 -122h551l14 -175h-515
c-197.333 0 -358.333 71.333 -483 214c-90.667 111.333 -136 234.666 -136 369.999v39l4 42c18 174.667 108.333 304.334 271 389.001l601 329c-34 62 -81 99 -141 111c-52.667 10 -220.667 15 -504 15l-25 166h451c124.667 0 220.667 -32.333 288 -97
c68.667 -64.667 103.334 -158.334 104.001 -281.001l-177 -101c6 -42 34.667 -69 86 -81c44 -10 108 -15 192 -15v-171z" />
    <glyph glyph-name="uniFEA3" unicode="&#x62d;" horiz-adv-x="1099" arabic-form="initial" 
d="M615 131c-94 -53.333 -182.667 -87 -266 -101c-80 -13.333 -207.667 -20 -383 -20v171h142c74.667 0 124 3.33301 148 10c80.667 9.33301 156.667 30 228 62c47.333 20 111 54.667 191 104l190 104c-20 57.333 -67.667 95.333 -143 114c-58 10 -221 15 -489 15l-25 166
h462c252 0 379 -126 381 -378z" />
    <glyph glyph-name="uniFEA4" unicode="&#x62d;" horiz-adv-x="1099" arabic-form="medial" 
d="M1120 10c-96 0.666992 -166.333 12.3311 -211 34.998c-26.667 12.667 -51 41.334 -73 86.001l-25 113c-120 -79.333 -252 -145.666 -396 -198.999c-89.333 -23.333 -239 -35 -449 -35v171h142c74.667 0 124 3.33301 148 10c80.667 9.33301 156.667 30 228 62
c47.333 20 111 54.667 191 104l190 104c-20 57.333 -67.667 95.333 -143 114c-58 10 -221 15 -489 15l-25 166h462c122.667 0 216.667 -32.667 282 -98c64.667 -65.333 97.667 -159.333 99 -282l-178 -98v-6c0 -60 82.333 -90.333 247 -91v-171z" />
    <glyph glyph-name="uniFEA6" unicode="&#x62e;" horiz-adv-x="1270" arabic-form="final" 
d="M1310 10c-85.333 1.33301 -151 10.334 -197 27.001c-54 19.333 -92 53 -114 101l-29 105l-389 -217c-173.333 -98 -260 -220.333 -260 -367c0 -105.333 43.667 -199 131 -281c87.333 -81.333 179.666 -122 276.999 -122h551l14 -175h-515
c-197.333 0 -358.333 71.333 -483 214c-90.667 111.333 -136 234.666 -136 369.999v39l4 42c18 174.667 108.333 304.334 271 389.001l601 329c-34 62 -81 99 -141 111c-52.667 10 -220.667 15 -504 15l-25 166h451c124.667 0 220.667 -32.333 288 -97
c68.667 -64.667 103.334 -158.334 104.001 -281.001l-177 -101c6 -42 34.667 -69 86 -81c44 -10 108 -15 192 -15v-171zM776 1155c26 -22 39 -46 39 -72c0 -33.333 -9.66699 -63 -29 -89c-20.667 -28 -46 -42 -76 -42c-88.667 0 -133 43.667 -133 131
c0 24.667 13.333 48.667 40 72c26 22 52.333 33 79 33c28 0 54.667 -11 80 -33z" />
    <glyph glyph-name="uniFEA7" unicode="&#x62e;" horiz-adv-x="1099" arabic-form="initial" 
d="M615 131c-94 -53.333 -182.667 -87 -266 -101c-80 -13.333 -207.667 -20 -383 -20v171h142c74.667 0 124 3.33301 148 10c80.667 9.33301 156.667 30 228 62c47.333 20 111 54.667 191 104l190 104c-20 57.333 -67.667 95.333 -143 114c-58 10 -221 15 -489 15l-25 166
h462c252 0 379 -126 381 -378zM592 1154c26 -22 39 -46 39 -72c0 -33.333 -9.66699 -63 -29 -89c-20.667 -28 -46 -42 -76 -42c-88.667 0 -133 43.667 -133 131c0 24.667 13.333 48.667 40 72c26 22 52.333 33 79 33c28 0 54.667 -11 80 -33z" />
    <glyph glyph-name="uniFEA8" unicode="&#x62e;" horiz-adv-x="1099" arabic-form="medial" 
d="M1120 10c-96 0.666992 -166.333 12.3311 -211 34.998c-26.667 12.667 -51 41.334 -73 86.001l-25 113c-120 -79.333 -252 -145.666 -396 -198.999c-89.333 -23.333 -239 -35 -449 -35v171h142c74.667 0 124 3.33301 148 10c80.667 9.33301 156.667 30 228 62
c47.333 20 111 54.667 191 104l190 104c-20 57.333 -67.667 95.333 -143 114c-58 10 -221 15 -489 15l-25 166h462c122.667 0 216.667 -32.667 282 -98c64.667 -65.333 97.667 -159.333 99 -282l-178 -98v-6c0 -60 82.333 -90.333 247 -91v-171zM609 1132
c26 -22 39 -46 39 -72c0 -33.333 -9.66699 -63 -29 -89c-20.667 -28 -46 -42 -76 -42c-88.667 0 -133 43.667 -133 131c0 24.667 13.333 48.667 40 72c26 22 52.333 33 79 33c28 0 54.667 -11 80 -33z" />
    <glyph glyph-name="uniFEAA" unicode="&#x62f;" horiz-adv-x="1317" arabic-form="final" 
d="M1248 10c-68 0 -149.003 47.002 -243.003 141.002c-19.333 -34 -47.666 -68.333 -84.999 -103c-40.667 -25.333 -98 -38 -172 -38h-581l-24 171h594c80 0 120 27 120 81c0 32 -12.333 59.333 -37 82l-422 451l113 116l571 -603
c62.667 -64.667 103.334 -101.334 122.001 -110.001c20.667 -10.667 62.334 -16.334 125.001 -17.001v-171h-81z" />
    <glyph glyph-name="uniFEAC" unicode="&#x630;" horiz-adv-x="1317" arabic-form="final" 
d="M1248 10c-68 0 -149.003 47.002 -243.003 141.002c-19.333 -34 -47.666 -68.333 -84.999 -103c-40.667 -25.333 -98 -38 -172 -38h-581l-24 171h594c80 0 120 27 120 81c0 32 -12.333 59.333 -37 82l-422 451l113 116l571 -603
c62.667 -64.667 103.334 -101.334 122.001 -110.001c20.667 -10.667 62.334 -16.334 125.001 -17.001v-171h-81zM516.997 1263c26 -22 39 -46 39 -72c0 -33.333 -9.66699 -63 -29 -89c-20.667 -28 -46 -42 -76 -42c-88.667 0 -133 43.667 -133 131
c0 24.667 13.333 48.667 40 72c26 22 52.333 33 79 33c28 0 54.667 -11 80 -33z" />
    <glyph glyph-name="uniFEAE" unicode="&#x631;" horiz-adv-x="976" arabic-form="final" 
d="M998 10c-85.333 2 -147.333 31.333 -186 88l-19 28v-35c0 -172.667 -49 -316 -147 -430c-90.667 -90.667 -200 -136 -328 -136h-239l-31 168h252c80.667 0 154.667 27.667 222 83c66.667 56.667 100 126.667 100 210v607h168v-266c0 -95.333 69.333 -144 208 -146v-171z
" />
    <glyph glyph-name="uniFEB0" unicode="&#x632;" horiz-adv-x="976" arabic-form="final" 
d="M998 10c-85.333 2 -147.333 31.333 -186 88l-19 28v-35c0 -172.667 -49 -316 -147 -430c-90.667 -90.667 -200 -136 -328 -136h-239l-31 168h252c80.667 0 154.667 27.667 222 83c66.667 56.667 100 126.667 100 210v607h168v-266c0 -95.333 69.333 -144 208 -146v-171z
M735 1007c26 -22 39 -46 39 -72c0 -33.333 -9.66699 -63 -29 -89c-20.667 -28 -46 -42 -76 -42c-88.667 0 -133 43.667 -133 131c0 24.667 13.333 48.667 40 72c26 22 52.333 33 79 33c28 0 54.667 -11 80 -33z" />
    <glyph glyph-name="uniFEB2" unicode="&#x633;" horiz-adv-x="2448" arabic-form="final" 
d="M1772 312c0 -43.333 14.999 -76.3311 44.999 -98.998c28 -21.333 66.667 -32 116 -32c103.333 0 155 45.333 155 136v276h168v-280c0 -48 25 -86.667 75 -116l64 -12l80 -4v-171l-68 4c-28 1.33301 -45.667 3.66602 -53 6.99902l-3 1c-70 8.66699 -127.667 42 -173 100
c-62 -77.333 -146 -116 -252 -116c-92.667 0 -175.667 36.667 -249 110c-72.667 -72.667 -152.667 -109 -240 -109c-48 0 -93.333 23.333 -136 70l-18 20v-28c0 -161.333 -44.667 -292 -134 -392c-89.333 -101.333 -198.666 -152 -327.999 -152h-302
c-122.667 0 -230 48 -322 144c-92 97.333 -138 211.666 -138 342.999v388h170v-397c0 -85.333 31.333 -158.333 94 -219c61.333 -60.667 135.333 -91 222 -91h250c90.667 0 166 29.333 226 88c60.667 58.667 91 132.667 91 222v590h171v-292c0 -32.667 16 -61 48 -85
c30.667 -23.333 64.667 -35 102 -35c108.667 0 163 39.667 163 119v293h176v-281z" />
    <glyph glyph-name="uniFEB3" unicode="&#x633;" horiz-adv-x="1549" arabic-form="initial" 
d="M1470 307c0 -91.333 -30.3311 -163.666 -90.998 -216.999c-58.667 -51.333 -137.334 -77 -236.001 -77c-79.333 0 -161.333 36.333 -246 109c-84.667 -71.333 -167 -107 -247 -107c-70.667 0 -148.667 35 -234 105l-9 6c-62 -77.333 -136 -116 -222 -116h-218v171h217
c53.333 0 92 14.333 116 43c22.667 27.333 34 70 34 128v241h163v-239c0 -50.667 13.667 -92.667 41 -126c29.333 -34.667 67.666 -52 114.999 -52c110 0 165 58.333 165 175v242h165v-248c0 -50.667 14.667 -91.334 44 -122.001c29.333 -31.333 68.333 -47 117 -47
c106.667 0 160 55.333 160 166v251h166v-286z" />
    <glyph glyph-name="uniFEB4" unicode="&#x633;" horiz-adv-x="1667" arabic-form="medial" 
d="M1132 4c-83.333 0 -164.668 39.668 -244.001 119.001c-79.333 -79.333 -165.333 -119 -258 -119c-88.667 0 -161.667 39.667 -219 119c-60 -77.333 -125 -116 -195 -116l-258 3v171h169c73.333 0 123.333 11.667 150 35c28.667 24.667 43 72 43 142v235h167v-233
c0 -46 13.667 -87.667 41 -125c28.667 -39.333 63 -59 103 -59c114 0 171 58.333 171 175v242h169v-239c0 -45.333 16 -86 48 -122c32.667 -37.333 70.334 -56 113.001 -56c105.333 0 158 58.333 158 175v242h171v-286c0 -64.667 46.333 -105.334 139 -122.001l80 -4v-171
l-68 4c-99.333 4 -179.333 39.667 -240 107c-68.667 -78 -148.667 -117 -240 -117z" />
    <glyph glyph-name="uniFEB6" unicode="&#x634;" horiz-adv-x="2448" arabic-form="final" 
d="M1772 312c0 -43.333 14.999 -76.3311 44.999 -98.998c28 -21.333 66.667 -32 116 -32c103.333 0 155 45.333 155 136v276h168v-280c0 -48 25 -86.667 75 -116l64 -12l80 -4v-171l-68 4c-28 1.33301 -45.667 3.66602 -53 6.99902l-3 1c-70 8.66699 -127.667 42 -173 100
c-62 -77.333 -146 -116 -252 -116c-92.667 0 -175.667 36.667 -249 110c-72.667 -72.667 -152.667 -109 -240 -109c-48 0 -93.333 23.333 -136 70l-18 20v-28c0 -161.333 -44.667 -292 -134 -392c-89.333 -101.333 -198.666 -152 -327.999 -152h-302
c-122.667 0 -230 48 -322 144c-92 97.333 -138 211.666 -138 342.999v388h170v-397c0 -85.333 31.333 -158.333 94 -219c61.333 -60.667 135.333 -91 222 -91h250c90.667 0 166 29.333 226 88c60.667 58.667 91 132.667 91 222v590h171v-292c0 -32.667 16 -61 48 -85
c30.667 -23.333 64.667 -35 102 -35c108.667 0 163 39.667 163 119v293h176v-281zM1935 1002c24.667 -24.667 37 -52.333 37 -83c0 -32 -12 -59.667 -36 -83s-52 -35 -84 -35s-59.667 11.667 -83 35s-35 51 -35 83c0 31.333 11.667 59 35 83c24 24 51.667 36 83 36
s59 -12 83 -36zM1625 836.003c-24 -23.333 -51.667 -35 -83 -35c-32 0 -59.333 11.667 -82 35c-23.333 23.333 -35 51 -35 83c0 31.333 11.667 59 35 83c24 24 51.333 36 82 36c31.333 0 59 -12 83 -36s36 -51.667 36 -83s-12 -59 -36 -83zM1773 1128
c-24 -24 -51.668 -35.999 -83.001 -35.999s-58.666 12 -81.999 36c-23.333 23.333 -35 51 -35 83c0 31.333 11.667 59 35 83c24 24 51.333 36 82 36c31.333 0 59 -12 83 -36s36 -51.667 36 -83c0 -30.667 -12 -58.334 -36 -83.001z" />
    <glyph glyph-name="uniFEB7" unicode="&#x634;" horiz-adv-x="1549" arabic-form="initial" 
d="M1470 307c0 -91.333 -30.3311 -163.666 -90.998 -216.999c-58.667 -51.333 -137.334 -77 -236.001 -77c-79.333 0 -161.333 36.333 -246 109c-84.667 -71.333 -167 -107 -247 -107c-70.667 0 -148.667 35 -234 105l-9 6c-62 -77.333 -136 -116 -222 -116h-218v171h217
c53.333 0 92 14.333 116 43c22.667 27.333 34 70 34 128v241h163v-239c0 -50.667 13.667 -92.667 41 -126c29.333 -34.667 67.666 -52 114.999 -52c110 0 165 58.333 165 175v242h165v-248c0 -50.667 14.667 -91.334 44 -122.001c29.333 -31.333 68.333 -47 117 -47
c106.667 0 160 55.333 160 166v251h166v-286zM1193 1012c24.667 -24.667 37 -52.333 37 -83c0 -32 -12 -59.667 -36 -83s-52 -35 -84 -35s-59.667 11.667 -83 35s-35 51 -35 83c0 31.333 11.667 59 35 83c24 24 51.667 36 83 36s59 -12 83 -36zM883.002 846.001
c-24 -23.333 -51.667 -35 -83 -35c-32 0 -59.333 11.667 -82 35c-23.333 23.333 -35 51 -35 83c0 31.333 11.667 59 35 83c24 24 51.333 36 82 36c31.333 0 59 -12 83 -36s36 -51.667 36 -83s-12 -59 -36 -83zM1031 1138c-24 -24 -51.668 -35.999 -83.001 -35.999
s-58.666 12 -81.999 36c-23.333 23.333 -35 51 -35 83c0 31.333 11.667 59 35 83c24 24 51.333 36 82 36c31.333 0 59 -12 83 -36s36 -51.667 36 -83c0 -30.667 -12 -58.334 -36 -83.001z" />
    <glyph glyph-name="uniFEB8" unicode="&#x634;" horiz-adv-x="1667" arabic-form="medial" 
d="M1132 4c-83.333 0 -164.668 39.668 -244.001 119.001c-79.333 -79.333 -165.333 -119 -258 -119c-88.667 0 -161.667 39.667 -219 119c-60 -77.333 -125 -116 -195 -116l-258 3v171h169c73.333 0 123.333 11.667 150 35c28.667 24.667 43 72 43 142v235h167v-233
c0 -46 13.667 -87.667 41 -125c28.667 -39.333 63 -59 103 -59c114 0 171 58.333 171 175v242h169v-239c0 -45.333 16 -86 48 -122c32.667 -37.333 70.334 -56 113.001 -56c105.333 0 158 58.333 158 175v242h171v-286c0 -64.667 46.333 -105.334 139 -122.001l80 -4v-171
l-68 4c-99.333 4 -179.333 39.667 -240 107c-68.667 -78 -148.667 -117 -240 -117zM1129 990.001c24.667 -24.667 37 -52.333 37 -83c0 -32 -12 -59.667 -36 -83s-52 -35 -84 -35s-59.667 11.667 -83 35s-35 51 -35 83c0 31.333 11.667 59 35 83c24 24 51.667 36 83 36
s59 -12 83 -36zM818.998 824.002c-24 -23.333 -51.667 -35 -83 -35c-32 0 -59.333 11.667 -82 35c-23.333 23.333 -35 51 -35 83c0 31.333 11.667 59 35 83c24 24 51.333 36 82 36c31.333 0 59 -12 83 -36s36 -51.667 36 -83s-12 -59 -36 -83zM966.998 1116
c-24 -24 -51.668 -35.999 -83.001 -35.999s-58.666 12 -81.999 36c-23.333 23.333 -35 51 -35 83c0 31.333 11.667 59 35 83c24 24 51.333 36 82 36c31.333 0 59 -12 83 -36s36 -51.667 36 -83c0 -30.667 -12 -58.334 -36 -83.001z" />
    <glyph glyph-name="uniFEBA" unicode="&#x635;" horiz-adv-x="2401" arabic-form="final" 
d="M2048 584c-65.333 0 -132.667 -41.668 -202 -125.001c-51.333 -55.333 -112 -148 -182 -278h392c76.667 0 115 65.333 115 196c0 84.667 -20.333 147.334 -61 188.001c-10 6.66699 -30 13 -60 19h-2zM238.999 -14.001c0 -75.333 31.667 -143 95 -203
c62 -60 131.333 -90 208 -90h271c76 0 147 33.667 213 101c65.333 66.667 98 130.667 98 192v607h171v-275c0 -91.333 64.667 -137 194 -137h7l2 6c150 380.667 322 571 516 571c64.667 0 124 -18.667 178 -56c48 -33.333 85.333 -75.666 112 -126.999
c29.333 -60.667 44 -122 44 -184c0 -62.667 -11.667 -132.667 -35 -210h113v-171h-862c-139.333 0 -221 32 -245 96l-20 53v-57c0 -166.667 -39.333 -303.667 -118 -411c-80 -110.667 -198.667 -166 -356 -166h-297c-130.667 0 -238.667 49.667 -324 149
c-85.333 103.333 -128 223.666 -128 360.999v365h163v-414z" />
    <glyph glyph-name="uniFEBB" unicode="&#x635;" horiz-adv-x="1580" arabic-form="initial" 
d="M1237 584c-56.667 0 -124.001 -41.666 -202.001 -124.999c-59.333 -64.667 -119.333 -157.334 -180 -278.001h390c80 0 120 65.333 120 196c0 82 -21.667 144.667 -65 188c-9.33301 6.66699 -29.666 13 -60.999 19h-2zM169.999 181.001
c96.667 0 145.001 51.333 145.001 154v258h168v-238c0 -116 66 -174 198 -174h8l2 6c70 184 150 325 240 423c89.333 97.333 183.333 146 282 146c38.667 0 85.334 -15 140.001 -45c120.667 -67.333 181 -180.333 181 -339c0 -51.333 -9.33301 -109.333 -28 -174
c-20.667 -70 -43.334 -114.333 -68.001 -133c-44.667 -36.667 -120.667 -55 -228 -55h-490c-128.667 0 -218 54.333 -268 163l-11 -13c-76.667 -100 -161.334 -150 -254.001 -150h-220v171h203z" />
    <glyph glyph-name="uniFEBC" unicode="&#x635;" horiz-adv-x="1667" arabic-form="medial" 
d="M1237 584c-56.667 0 -124.001 -41.666 -202.001 -124.999c-59.333 -64.667 -119.333 -157.334 -180 -278.001h390c80 0 120 65.333 120 196c0 82 -21.667 144.667 -65 188c-9.33301 6.66699 -29.666 13 -60.999 19h-2zM169.999 181.001
c96.667 0 145.001 51.333 145.001 154v258h168v-238c0 -116 66 -174 198 -174h8l2 6c70 184 150 325 240 423c89.333 97.333 183.333 146 282 146c46 0 94.333 -15 145 -45c117.333 -69.333 176 -182.333 176 -339c0 -50 -9.66699 -113.667 -29 -191h175v-171h-960
c-128.667 0 -218 54.333 -268 163l-11 -13c-76.667 -100 -161.334 -150 -254.001 -150h-220v171h203z" />
    <glyph glyph-name="uniFEBE" unicode="&#x636;" horiz-adv-x="2401" arabic-form="final" 
d="M2048 584c-65.333 0 -132.667 -41.668 -202 -125.001c-51.333 -55.333 -112 -148 -182 -278h392c76.667 0 115 65.333 115 196c0 84.667 -20.333 147.334 -61 188.001c-10 6.66699 -30 13 -60 19h-2zM238.999 -14.001c0 -75.333 31.667 -143 95 -203
c62 -60 131.333 -90 208 -90h271c76 0 147 33.667 213 101c65.333 66.667 98 130.667 98 192v607h171v-275c0 -91.333 64.667 -137 194 -137h7l2 6c150 380.667 322 571 516 571c64.667 0 124 -18.667 178 -56c48 -33.333 85.333 -75.666 112 -126.999
c29.333 -60.667 44 -122 44 -184c0 -62.667 -11.667 -132.667 -35 -210h113v-171h-862c-139.333 0 -221 32 -245 96l-20 53v-57c0 -166.667 -39.333 -303.667 -118 -411c-80 -110.667 -198.667 -166 -356 -166h-297c-130.667 0 -238.667 49.667 -324 149
c-85.333 103.333 -128 223.666 -128 360.999v365h163v-414zM1578 1091c26 -22 39 -46 39 -72c0 -33.333 -9.66699 -63 -29 -89c-20.667 -28 -46 -42 -76 -42c-88.667 0 -133 43.667 -133 131c0 24.667 13.333 48.667 40 72c26 22 52.333 33 79 33c28 0 54.667 -11 80 -33z
" />
    <glyph glyph-name="uniFEBF" unicode="&#x636;" horiz-adv-x="1580" arabic-form="initial" 
d="M1237 584c-56.667 0 -124.001 -41.666 -202.001 -124.999c-59.333 -64.667 -119.333 -157.334 -180 -278.001h390c80 0 120 65.333 120 196c0 82 -21.667 144.667 -65 188c-9.33301 6.66699 -29.666 13 -60.999 19h-2zM169.999 181.001
c96.667 0 145.001 51.333 145.001 154v258h168v-238c0 -116 66 -174 198 -174h8l2 6c70 184 150 325 240 423c89.333 97.333 183.333 146 282 146c38.667 0 85.334 -15 140.001 -45c120.667 -67.333 181 -180.333 181 -339c0 -51.333 -9.33301 -109.333 -28 -174
c-20.667 -70 -43.334 -114.333 -68.001 -133c-44.667 -36.667 -120.667 -55 -228 -55h-490c-128.667 0 -218 54.333 -268 163l-11 -13c-76.667 -100 -161.334 -150 -254.001 -150h-220v171h203zM796 1132c26 -22 39 -46 39 -72c0 -33.333 -9.66699 -63 -29 -89
c-20.667 -28 -46 -42 -76 -42c-88.667 0 -133 43.667 -133 131c0 24.667 13.333 48.667 40 72c26 22 52.333 33 79 33c28 0 54.667 -11 80 -33z" />
    <glyph glyph-name="uniFEC0" unicode="&#x636;" horiz-adv-x="1667" arabic-form="medial" 
d="M1237 584c-56.667 0 -124.001 -41.666 -202.001 -124.999c-59.333 -64.667 -119.333 -157.334 -180 -278.001h390c80 0 120 65.333 120 196c0 82 -21.667 144.667 -65 188c-9.33301 6.66699 -29.666 13 -60.999 19h-2zM169.999 181.001
c96.667 0 145.001 51.333 145.001 154v258h168v-238c0 -116 66 -174 198 -174h8l2 6c70 184 150 325 240 423c89.333 97.333 183.333 146 282 146c46 0 94.333 -15 145 -45c117.333 -69.333 176 -182.333 176 -339c0 -50 -9.66699 -113.667 -29 -191h175v-171h-960
c-128.667 0 -218 54.333 -268 163l-11 -13c-76.667 -100 -161.334 -150 -254.001 -150h-220v171h203zM835 1133c26 -22 39 -46 39 -72c0 -33.333 -9.66699 -63 -29 -89c-20.667 -28 -46 -42 -76 -42c-88.667 0 -133 43.667 -133 131c0 24.667 13.333 48.667 40 72
c26 22 52.333 33 79 33c28 0 54.667 -11 80 -33z" />
    <glyph glyph-name="uniFEC2" unicode="&#x637;" horiz-adv-x="1113" arabic-form="final" 
d="M747 584c-54.667 0 -120.668 -41.666 -198.001 -124.999c-69.333 -67.333 -129.333 -160 -180 -278h383c30 0 60 21 90 63l1 1c20.667 39.333 31 85.666 31 138.999c0 84.667 -21.333 145 -64 181c-9.33301 6.66699 -29.666 13 -60.999 19h-2zM1037 284.001
c0 -25.333 -8.33301 -59.667 -25 -103h109v-171h-1031l-34 171h159v1040h171v-707l19 25c114 144.667 221 217 321 217c33.333 0 80 -15 140 -45c117.333 -68 176 -185.667 176 -353v-26z" />
    <glyph glyph-name="uniFEC3" unicode="&#x637;" horiz-adv-x="1048" arabic-form="initial" 
d="M665 584c-56 0 -121 -38.666 -195 -115.999c-72 -74.667 -132.667 -165.667 -182 -273l-8 -14h393c79.333 0 119 64.667 119 194c0 90.667 -22.667 154 -68 190c-8 7.33301 -27 13.666 -57 18.999h-2zM917 563.001c34 -70 51 -146.335 51 -229.002
c0 -85.333 -24.333 -158.666 -73 -219.999c-52 -69.333 -127 -104 -225 -104h-695v171h164v1040h169v-704l19 24c112.667 143.333 218.667 215 318 215c39.333 0 86.333 -15 141 -45c53.333 -29.333 97 -78.666 131 -147.999z" />
    <glyph glyph-name="uniFEC4" unicode="&#x637;" horiz-adv-x="1009" arabic-form="medial" 
d="M628 584c-57.333 0 -124.668 -41.667 -202.001 -125c-67.333 -70 -125.333 -158 -174 -264l-7 -14h388c30.667 0 61 21 91 63l2 2c17.333 34 26 80 26 138c0 80 -20.333 140.333 -61 181c-9.33301 6.66699 -29.666 13 -60.999 19h-2zM886.998 181h134v-171h-1063v171h139
v1040h168v-707l19 25c114 144.667 223 217 327 217c34 0 78.333 -15 133 -45c117.333 -68 176 -184 176 -348c0 -70 -11 -130.667 -33 -182z" />
    <glyph glyph-name="uniFEC6" unicode="&#x638;" horiz-adv-x="1113" arabic-form="final" 
d="M747 584c-54.667 0 -120.668 -41.666 -198.001 -124.999c-69.333 -67.333 -129.333 -160 -180 -278h383c30 0 60 21 90 63l1 1c20.667 39.333 31 85.666 31 138.999c0 84.667 -21.333 145 -64 181c-9.33301 6.66699 -29.666 13 -60.999 19h-2zM1037 284.001
c0 -25.333 -8.33301 -59.667 -25 -103h109v-171h-1031l-34 171h159v1040h171v-707l19 25c114 144.667 221 217 321 217c33.333 0 80 -15 140 -45c117.333 -68 176 -185.667 176 -353v-26zM877.999 1165c26 -22 39 -46 39 -72c0 -33.333 -9.66699 -63 -29 -89
c-20.667 -28 -46 -42 -76 -42c-88.667 0 -133 43.667 -133 131c0 24.667 13.333 48.667 40 72c26 22 52.333 33 79 33c28 0 54.667 -11 80 -33z" />
    <glyph glyph-name="uniFEC7" unicode="&#x638;" horiz-adv-x="1048" arabic-form="initial" 
d="M743 1137c26 -22 39 -46 39 -72c0 -33.333 -9.66699 -63 -29 -89c-20.667 -28 -46 -42 -76 -42c-88.667 0 -133 43.667 -133 131c0 24.667 13.333 48.667 40 72c26 22 52.333 33 79 33c28 0 54.667 -11 80 -33zM665 584c-56 0 -121 -38.666 -195 -115.999
c-72 -74.667 -132.667 -165.667 -182 -273l-8 -14h393c79.333 0 119 64.667 119 194c0 90.667 -22.667 154 -68 190c-8 7.33301 -27 13.666 -57 18.999h-2zM917 563.001c34 -70 51 -146.335 51 -229.002c0 -85.333 -24.333 -158.666 -73 -219.999
c-52 -69.333 -127 -104 -225 -104h-695v171h164v1040h169v-704l19 24c112.667 143.333 218.667 215 318 215c39.333 0 86.333 -15 141 -45c53.333 -29.333 97 -78.666 131 -147.999z" />
    <glyph glyph-name="uniFEC8" unicode="&#x638;" horiz-adv-x="1009" arabic-form="medial" 
d="M707 1127c26 -22 39 -46 39 -72c0 -33.333 -9.66699 -63 -29 -89c-20.667 -28 -46 -42 -76 -42c-88.667 0 -133 43.667 -133 131c0 24.667 13.333 48.667 40 72c26 22 52.333 33 79 33c28 0 54.667 -11 80 -33zM628 584c-57.333 0 -124.668 -41.667 -202.001 -125
c-67.333 -70 -125.333 -158 -174 -264l-7 -14h388c30.667 0 61 21 91 63l2 2c17.333 34 26 80 26 138c0 80 -20.333 140.333 -61 181c-9.33301 6.66699 -29.666 13 -60.999 19h-2zM886.998 181h134v-171h-1063v171h139v1040h168v-707l19 25c114 144.667 223 217 327 217
c34 0 78.333 -15 133 -45c117.333 -68 176 -184 176 -348c0 -70 -11 -130.667 -33 -182z" />
    <glyph glyph-name="uniFECA" unicode="&#x639;" horiz-adv-x="1272" arabic-form="final" 
d="M911 592h-332l232 -247c84.667 48 136.667 80.333 156 97c32 27.333 48 54.333 48 81c0 34 -34.667 57 -104 69zM929 226c67.333 -30 192.667 -45 376 -45v-171c-125.333 0 -217 5.66699 -275 17c-106 18.667 -186 60.334 -240 125.001l-8 -3
c-312.667 -130 -469 -295 -469 -495c0 -95.333 44.333 -189.333 133 -282c82 -77.333 170.667 -116 266 -116h551l16 -175h-517c-169.333 0 -313 61.667 -431 185c-120 111.333 -180 246.333 -180 405c0 115.333 38.667 224.333 116 327s209.333 194 396 274l-265 253
l65 111l59 120h401c157.333 0 245 -67 263 -201c0 -54 -4.33301 -85.333 -13 -94v-1c-14.667 -70.667 -90 -145.334 -226 -224.001z" />
    <glyph glyph-name="uniFECB" unicode="&#x639;" horiz-adv-x="964" arabic-form="initial" 
d="M246 181c-43.333 102.667 -65 185 -65 247c0 97.333 38 181 114 251c27.333 24 63.666 43 108.999 57l63 14l86 6c48 0 98.333 -12.333 151 -37h1c26.667 -9.33301 49.334 -23.333 68.001 -42c22.667 -12.667 45.334 -30.667 68.001 -54l-84 -133
c-96.667 74 -180 111 -250 111c-74 0 -124 -36.333 -150 -109h-1l-14 -51v-36c0 -35.333 8.66699 -73 26 -113c31.333 -74 77.666 -111 138.999 -111h376l31 -171h-947v171h279z" />
    <glyph glyph-name="uniFECC" unicode="&#x639;" horiz-adv-x="886" arabic-form="medial" 
d="M605 573c-7.33301 3.33301 -29.333 9.66699 -66 19h-333l232 -243c67.333 34 116.333 63.667 147 89c32.667 26.667 49 53.667 49 81c0 25.333 -9.66699 43.333 -29 54zM910 181.001l-0.000976562 -170.999c-118 0 -203.667 6.33301 -257 19c-50 10 -118 51.333 -204 124
c-78.667 -65.333 -160 -109 -244 -131c-48 -8 -127.667 -12 -239 -12v171c175.333 1.33301 289 28 341 80l-268 264l121 231h403c156.667 0 242.334 -67 257.001 -201c0 -50.667 -1.66699 -81.334 -5 -92.001c-23.333 -74.667 -101.333 -151 -234 -229
c89.333 -34 199 -51.667 329 -53z" />
    <glyph glyph-name="uniFECE" unicode="&#x63a;" horiz-adv-x="1272" arabic-form="final" 
d="M894 1136c26 -22 39 -46 39 -72c0 -33.333 -9.66699 -63 -29 -89c-20.667 -28 -46 -42 -76 -42c-88.667 0 -133 43.667 -133 131c0 24.667 13.333 48.667 40 72c26 22 52.333 33 79 33c28 0 54.667 -11 80 -33zM911 592h-332l232 -247c84.667 48 136.667 80.333 156 97
c32 27.333 48 54.333 48 81c0 34 -34.667 57 -104 69zM929 226c67.333 -30 192.667 -45 376 -45v-171c-125.333 0 -217 5.66699 -275 17c-106 18.667 -186 60.334 -240 125.001l-8 -3c-312.667 -130 -469 -295 -469 -495c0 -95.333 44.333 -189.333 133 -282
c82 -77.333 170.667 -116 266 -116h551l16 -175h-517c-169.333 0 -313 61.667 -431 185c-120 111.333 -180 246.333 -180 405c0 115.333 38.667 224.333 116 327s209.333 194 396 274l-265 253l65 111l59 120h401c157.333 0 245 -67 263 -201
c0 -54 -4.33301 -85.333 -13 -94v-1c-14.667 -70.667 -90 -145.334 -226 -224.001z" />
    <glyph glyph-name="uniFECF" unicode="&#x63a;" horiz-adv-x="964" arabic-form="initial" 
d="M246 181c-43.333 102.667 -65 185 -65 247c0 97.333 38 181 114 251c27.333 24 63.666 43 108.999 57l63 14l86 6c48 0 98.333 -12.333 151 -37h1c26.667 -9.33301 49.334 -23.333 68.001 -42c22.667 -12.667 45.334 -30.667 68.001 -54l-84 -133
c-96.667 74 -180 111 -250 111c-74 0 -124 -36.333 -150 -109h-1l-14 -51v-36c0 -35.333 8.66699 -73 26 -113c31.333 -74 77.666 -111 138.999 -111h376l31 -171h-947v171h279zM652 1130c26 -22 39 -46 39 -72c0 -33.333 -9.66699 -63 -29 -89c-20.667 -28 -46 -42 -76 -42
c-88.667 0 -133 43.667 -133 131c0 24.667 13.333 48.667 40 72c26 22 52.333 33 79 33c28 0 54.667 -11 80 -33z" />
    <glyph glyph-name="uniFED0" unicode="&#x63a;" horiz-adv-x="886" arabic-form="medial" 
d="M605 573c-7.33301 3.33301 -29.333 9.66699 -66 19h-333l232 -243c67.333 34 116.333 63.667 147 89c32.667 26.667 49 53.667 49 81c0 25.333 -9.66699 43.333 -29 54zM910 181.001l-0.000976562 -170.999c-118 0 -203.667 6.33301 -257 19c-50 10 -118 51.333 -204 124
c-78.667 -65.333 -160 -109 -244 -131c-48 -8 -127.667 -12 -239 -12v171c175.333 1.33301 289 28 341 80l-268 264l121 231h403c156.667 0 242.334 -67 257.001 -201c0 -50.667 -1.66699 -81.334 -5 -92.001c-23.333 -74.667 -101.333 -151 -234 -229
c89.333 -34 199 -51.667 329 -53zM533.999 1158c26 -22 39 -46 39 -72c0 -33.333 -9.66699 -63 -29 -89c-20.667 -28 -46 -42 -76 -42c-88.667 0 -133 43.667 -133 131c0 24.667 13.333 48.667 40 72c26 22 52.333 33 79 33c28 0 54.667 -11 80 -33z" />
    <glyph glyph-name="uniFED2" unicode="&#x641;" horiz-adv-x="1725" arabic-form="final" 
d="M1422 533c-34.667 39.333 -71.999 58.998 -111.999 58.998c-40.667 0 -79.334 -15.667 -116.001 -47c-37.333 -32.667 -56 -68.667 -56 -108c0 -77.333 68 -148.666 204 -213.999l5 -3l4 4c81.333 50 122 112.333 122 187c0 42.667 -17 83.334 -51 122.001z
M261.001 340.998c0 -106.667 51.333 -160 154 -160h686l-14 16c-68.667 80.667 -103 162.667 -103 246c0 84 29.333 157.333 88 220c58 62 135.667 93 233 93c95.333 0 174 -34.333 236 -103c55.333 -66.667 83 -142 83 -226c0 -88 -25 -170 -75 -246h192v-171
c-210.667 0 -346.334 15.667 -407.001 47c-13.333 -17.333 -70.666 -30 -171.999 -38c-44.667 -3.33301 -107.667 -5 -189 -5l-638 -4c-69.333 0 -130 34.667 -182 104c-40.667 62.667 -61 129 -61 199v280h169v-252zM1380 1126c26 -22 39 -46 39 -72
c0 -33.333 -9.66699 -63 -29 -89c-20.667 -28 -46 -42 -76 -42c-88.667 0 -133 43.667 -133 131c0 24.667 13.333 48.667 40 72c26 22 52.333 33 79 33c28 0 54.667 -11 80 -33z" />
    <glyph glyph-name="uniFED3" unicode="&#x641;" horiz-adv-x="894" arabic-form="initial" 
d="M649 514c0 61.333 -15.999 112.999 -47.999 154.999c-34.667 44.667 -80 67 -136 67c-39.333 0 -72.333 -9 -99 -27c-30 -20 -45 -47 -45 -81c0 -63.333 19.667 -100.666 59 -111.999c13.333 -8 56.666 -12 129.999 -12h139v10zM831.001 319.999
c0 -107.333 -36.333 -187.666 -109 -240.999c-58.667 -46 -118.667 -69 -180 -69h-566v171h569c79.333 0 119 51.333 119 154v10h-11c-174.667 0 -287 6 -337 18c-101.333 42.667 -152 126.667 -152 252c0 94 31 167.333 93 220c64 54 139 81 225 81s162 -31 228 -93
c78.667 -68.667 118 -162.334 118 -281.001zM567.001 1298c26 -22 39 -46 39 -72c0 -33.333 -9.66699 -63 -29 -89c-20.667 -28 -46 -42 -76 -42c-88.667 0 -133 43.667 -133 131c0 24.667 13.333 48.667 40 72c26 22 52.333 33 79 33c28 0 54.667 -11 80 -33z" />
    <glyph glyph-name="uniFED4" unicode="&#x641;" horiz-adv-x="912" arabic-form="medial" 
d="M335 542c-36 -34 -53.999 -70.001 -53.999 -108.001c0 -80.667 66.667 -151 200 -211l5 -4c42 34 73.667 66.333 95 97s32 62.334 32 95.001c0 42 -17.667 82.667 -53 122c-36 39.333 -74.333 59 -115 59c-38.667 0 -75.334 -16.667 -110.001 -50zM216.001 670.999
c61.333 56.667 138.667 84.999 232 84.999c101.333 0 180.333 -34 237 -102c52.667 -65.333 79 -141.333 79 -228c0 -87.333 -25 -169 -75 -245h265v-169l-51 4h-51l-136 3c-49.333 0 -99.333 4.33301 -150 13l-90 31c-46.667 -35.333 -225 -53 -535 -53v171h297l-14 16
c-68.667 80.667 -103 164.334 -103 251.001c0 90.667 31.667 165 95 223zM547.002 1157c26 -22 39 -46 39 -72c0 -33.333 -9.66699 -63 -29 -89c-20.667 -28 -46 -42 -76 -42c-88.667 0 -133 43.667 -133 131c0 24.667 13.333 48.667 40 72c26 22 52.333 33 79 33
c28 0 54.667 -11 80 -33z" />
    <glyph glyph-name="uniFED6" unicode="&#x642;" horiz-adv-x="1439" arabic-form="final" 
d="M1142 191c0 57.333 -20.668 108.999 -62.001 154.999c-42 46.667 -90.667 70 -146 70c-42 0 -76.667 -8.33301 -104 -25c-30.667 -18.667 -46 -45.667 -46 -81c0 -53.333 24 -91.666 72 -114.999l1 -1c28.667 -8.66699 120.334 -13 275.001 -13h10v10zM716.999 512.999
c61.333 53.333 138.666 80.002 231.999 80.002c110 0 198.667 -38.333 266 -115c64.667 -74.667 97 -170.334 97 -287.001v-10h154v-171h-159v-10c0 -70.667 -12.667 -131.334 -38 -182.001v-1c-21.333 -58 -59.333 -110.667 -114 -158v-1
c-90.667 -88.667 -199 -133 -325 -133h-297c-114 0 -216.667 49.667 -308 149s-137 212 -137 338v270h168v-296c0 -74 35.333 -140 106 -198c70 -58 139.667 -87 209 -87h253c76.667 0 145.334 28.667 206.001 86c71.333 55.333 107 126.333 107 213v10h-10
c-186.667 0 -302 8.66699 -346 26c-106 36 -159 123 -159 261c0 88 31.667 160 95 216zM885.999 994.001c24 -24 36 -51.668 36 -83.001c0 -27.333 -11 -53.666 -33 -78.999c-22.667 -25.333 -47 -38 -73 -38c-87.333 0 -131 43.667 -131 131c0 24.667 13.333 48.667 40 72
c25.333 22 51.333 33 78 33c31.333 0 59 -12 83 -36zM1179 994c24.667 -24.667 37.001 -52.334 37.001 -83.001c0 -27.333 -11 -53.666 -33 -78.999c-22.667 -25.333 -47 -38 -73 -38c-88 0 -132 43.667 -132 131c0 26 13 50 39 72c25.333 22 51.666 33 78.999 33
c31.333 0 59 -12 83 -36z" />
    <glyph glyph-name="uniFED7" unicode="&#x642;" horiz-adv-x="894" arabic-form="initial" 
d="M649 514c0 61.333 -15.999 112.999 -47.999 154.999c-34.667 44.667 -80 67 -136 67c-39.333 0 -72.333 -9 -99 -27c-30 -20 -45 -47 -45 -81c0 -63.333 19.667 -100.666 59 -111.999c13.333 -8 56.666 -12 129.999 -12h139v10zM831.001 319.999
c0 -107.333 -36.333 -187.666 -109 -240.999c-58.667 -46 -118.667 -69 -180 -69h-566v171h569c79.333 0 119 51.333 119 154v10h-11c-174.667 0 -287 6 -337 18c-101.333 42.667 -152 126.667 -152 252c0 94 31 167.333 93 220c64 54 139 81 225 81s162 -31 228 -93
c78.667 -68.667 118 -162.334 118 -281.001zM419.001 1288c24 -24 36 -51.668 36 -83.001c0 -27.333 -11 -53.666 -33 -78.999c-22.667 -25.333 -47 -38 -73 -38c-87.333 0 -131 43.667 -131 131c0 24.667 13.333 48.667 40 72c25.333 22 51.333 33 78 33
c31.333 0 59 -12 83 -36zM712.001 1288c24.667 -24.667 37.001 -52.334 37.001 -83.001c0 -27.333 -11 -53.666 -33 -78.999c-22.667 -25.333 -47 -38 -73 -38c-88 0 -132 43.667 -132 131c0 26 13 50 39 72c25.333 22 51.666 33 78.999 33c31.333 0 59 -12 83 -36z" />
    <glyph glyph-name="uniFED8" unicode="&#x642;" horiz-adv-x="912" arabic-form="medial" 
d="M335 542c-36 -34 -53.999 -70.001 -53.999 -108.001c0 -80.667 66.667 -151 200 -211l5 -4c42 34 73.667 66.333 95 97s32 62.334 32 95.001c0 42 -17.667 82.667 -53 122c-36 39.333 -74.333 59 -115 59c-38.667 0 -75.334 -16.667 -110.001 -50zM216.001 670.999
c61.333 56.667 138.667 84.999 232 84.999c101.333 0 180.333 -34 237 -102c52.667 -65.333 79 -141.333 79 -228c0 -87.333 -25 -169 -75 -245h265v-169l-51 4h-51l-136 3c-49.333 0 -99.333 4.33301 -150 13l-90 31c-46.667 -35.333 -225 -53 -535 -53v171h297l-14 16
c-68.667 80.667 -103 164.334 -103 251.001c0 90.667 31.667 165 95 223zM384.002 1135c24 -24 36 -51.668 36 -83.001c0 -27.333 -11 -53.666 -33 -78.999c-22.667 -25.333 -47 -38 -73 -38c-87.333 0 -131 43.667 -131 131c0 24.667 13.333 48.667 40 72
c25.333 22 51.333 33 78 33c31.333 0 59 -12 83 -36zM677.002 1135c24.667 -24.667 37.001 -52.334 37.001 -83.001c0 -27.333 -11 -53.666 -33 -78.999c-22.667 -25.333 -47 -38 -73 -38c-88 0 -132 43.667 -132 131c0 26 13 50 39 72c25.333 22 51.666 33 78.999 33
c31.333 0 59 -12 83 -36z" />
    <glyph glyph-name="uniFEDA" unicode="&#x643;" horiz-adv-x="1738" arabic-form="final" 
d="M770 836c33.333 0 88 20.0029 164 60.0029l47 -93l-349 -175l-37 88l85 46c-48 43.333 -72 88.666 -72 135.999s17.667 88.666 53 123.999c35.333 34 77 51.667 125 53c34.667 -6.66699 71.334 -18.334 110.001 -35.001l-44 -94c-28 20 -51 30 -69 30
c-16.667 0 -31.334 -5.33301 -44.001 -16l13 -16l-17 13c-16.667 -23.333 -25 -42 -25 -56c0 -43.333 20 -65 60 -65zM265 341.003c0 -60.667 10.668 -102.334 32.001 -125.001c22 -23.333 62.333 -35 121 -35l788 -5c77.333 0 123.666 30.667 138.999 92
c10 24 15 60.333 15 109v844h171v-880c0 -72 22 -120 66 -144l3 -1c40 -10 98.667 -15 176 -15v-171h-51c-80 0 -135 4.33301 -165 13s-67.333 31.334 -112 68.001c-47.333 -40.667 -89.333 -64 -126 -70c-38.667 -7.33301 -361 -11 -967 -11c-75.333 0 -138.333 31 -189 93
c-49.333 59.333 -74 129.333 -74 210v280h173v-252z" />
    <glyph glyph-name="uniFEDB" unicode="&#x643;" horiz-adv-x="898" arabic-form="initial" 
d="M758 407c35.333 -43.333 53 -93.002 53 -149.002c0 -57.333 -24 -113.666 -72 -168.999c-52.667 -52.667 -127.667 -79 -225 -79h-548v171h548c80 0 120 27 120 81c0 24.667 -12.667 54.334 -38 89.001l-505 528l-35 190l750 270l20 -164l-569 -211z" />
    <glyph glyph-name="uniFEDC" unicode="&#x643;" horiz-adv-x="1103" arabic-form="medial" 
d="M784 175c-25.333 -63.333 -51.333 -105.333 -78 -126c-33.333 -26 -87 -39 -161 -39h-564v171h543c73.333 0 110 27 110 81c0 28 -15.333 59.667 -46 95l-479 521l-28 205l739 263l27 -171l-573 -211l544 -600c75.333 -84 132 -138 170 -162l53 -17l72 -3v-172
c-147.333 2 -253.333 52 -318 150z" />
    <glyph glyph-name="uniFEDE" unicode="&#x644;" horiz-adv-x="1501" arabic-form="final" 
d="M825 -307c85.333 0 159.334 28 222.001 84c63.333 57.333 95 127 95 209v1235h170v-894c0 -95.333 74 -144 222 -146v-171c-94 2 -160.333 31.333 -199 88l-19 28v-35c0 -174 -49.333 -317.333 -148 -430c-88.667 -90.667 -198.334 -136 -329.001 -136h-294
c-119.333 0 -224.333 49.333 -315 148c-92 98 -138 211 -138 339v388h169v-414c0 -73.333 30.333 -140.333 91 -201c61.333 -61.333 138 -92 230 -92h243z" />
    <glyph glyph-name="uniFEDF" unicode="&#x644;" horiz-adv-x="463" arabic-form="initial" 
d="M404 296c0 -88 -27.334 -157.666 -82.001 -208.999c-53.333 -51.333 -124.666 -77 -213.999 -77h-133v171h122c54.667 0 94 17.333 118 52l1 2c14 29.333 21 76.666 21 141.999v844h167v-925z" />
    <glyph glyph-name="uniFEE0" unicode="&#x644;" horiz-adv-x="636" arabic-form="medial" 
d="M102 180c62 0 103.333 15.668 124 47.001c17.333 26.667 26 76.667 26 150v844h171v-880c0 -72.667 23 -117.667 69 -135c44 -16 102.667 -24.333 176 -25v-171h-48c-77.333 0 -132 4.66699 -164 14c-32.667 9.33301 -70 31.666 -112 66.999
c-47.333 -40.667 -89.333 -64 -126 -70c-38.667 -7.33301 -119.667 -11 -243 -11v171z" />
    <glyph glyph-name="uniFEE2" unicode="&#x645;" horiz-adv-x="1345" arabic-form="final" 
d="M657 310c0 -41.333 16.333 -75.668 49 -103.001c30.667 -26 68 -39 112 -39c47.333 0 86 15.333 116 46s45 70 45 118c0 116.667 -12.333 186.334 -37 209.001c-32.667 32.667 -124 49 -274 49h-11v-280zM480 589.998c-56.667 0 -107.668 -19.334 -153.001 -58.001
c-47.333 -40 -71 -86.333 -71 -139v-868h-164v841c0 124 33 223 99 297c71.333 62 159.333 93 264 93h391c197.333 0 296 -146 296 -438c0 -89.333 71.333 -135 214 -137v-171c-65.333 0.666992 -119.666 8.33398 -162.999 23.001c-36 18.667 -76 61.667 -120 129l-7 -18
c-38.667 -98 -117 -147 -235 -147c-91.333 0 -168 31 -230 93c-74 62 -111 147.333 -111 256v244h-10z" />
    <glyph glyph-name="uniFEE3" unicode="&#x645;" horiz-adv-x="891" arabic-form="initial" 
d="M678 372c0 145.333 -59.333 218 -178 218c-119.333 0 -179 -72.667 -179 -218c0 -147.333 59.667 -221 179 -221c118.667 0 178 73.667 178 221zM740 91c-57.333 -73.333 -137.667 -110.001 -241 -110.001c-91.333 0 -162.333 25.333 -213 76
c-62.667 -30.667 -167.667 -46.334 -315 -47.001v171c104 0.666992 165.667 12.334 185 35.001v1c8 8 12 58.333 12 151v20c0 98 29 184.333 87 259c56 72.667 136.333 109 241 109c102 0 182.667 -38.333 242 -115c54.667 -71.333 82 -163.666 82 -276.999
s-26.667 -204.333 -80 -273z" />
    <glyph glyph-name="uniFEE4" unicode="&#x645;" horiz-adv-x="964" arabic-form="medial" 
d="M489 151c116.667 0 175 73.667 175 221c0 145.333 -58.333 218 -175 218c-119.333 0 -179 -72.667 -179 -218c0 -147.333 59.667 -221 179 -221zM981 10c-66 1.33301 -114.332 10.6641 -144.999 27.9971c-28 15.333 -55 46 -81 92l-9 -14
c-54 -90 -139.333 -135 -256 -135c-36 0 -82 15 -138 45c-44 26.667 -78.667 57 -104 91l-14 18l-5 -23c-12.667 -66.667 -102.667 -100.667 -270 -102v171c104.667 0.666992 166.667 12.334 186 35.001c8 8.66699 12.333 24.667 13 48c1.33301 32 2 73.333 2 124
c0 96 28.667 182.333 86 259c54.667 72.667 134 109 238 109c105.333 0 186.666 -36.667 243.999 -110c58 -74 87 -165.333 87 -274c0 -59.333 3 -99.666 9 -120.999c10 -34 32 -55 66 -63c14.667 -3.33301 45 -5.66602 91 -6.99902v-171z" />
    <glyph glyph-name="uniFEE6" unicode="&#x646;" horiz-adv-x="1515" arabic-form="final" 
d="M1526 10c-95.333 2 -160.332 31 -194.999 87l-19 31v-37c0 -174 -49.333 -317.333 -148 -430c-88.667 -90.667 -197.334 -136 -326.001 -136h-296c-116.667 0 -221 49.333 -313 148c-91.333 98.667 -137 211.667 -137 339v388h168v-414
c0 -73.333 29.667 -140.333 89 -201c60 -61.333 137 -92 231 -92h245c81.333 0 154.333 27.333 219 82s97 125 97 211v607h168v-266c0 -95.333 72.333 -144 217 -146v-171zM764.001 792c-22 -26 -46 -39 -72 -39c-38.667 0 -70 10 -94 30c-25.333 21.333 -38 50.333 -38 87
c0 32 11.667 60 35 84s51 36 83 36s60 -11.667 84 -35c23.333 -23.333 35 -51 35 -83c0 -28 -11 -54.667 -33 -80z" />
    <glyph glyph-name="uniFEE7" unicode="&#x646;" horiz-adv-x="623" arabic-form="initial" 
d="M433 991c26 -22 39 -46 39 -72c0 -33.333 -9.66699 -63 -29 -89c-20.667 -28 -46 -42 -76 -42c-88.667 0 -133 43.667 -133 131c0 24.667 13.333 48.667 40 72c26 22 52.333 33 79 33c28 0 54.667 -11 80 -33zM546 313c0 -76.667 -26.666 -146 -79.999 -208
c-54.667 -63.333 -118.334 -95 -191.001 -95h-300v171h240c67.333 0 113.333 17.333 138 52l1 1c10 17.333 15 53 15 107v252h177v-280z" />
    <glyph glyph-name="uniFEE8" unicode="&#x646;" horiz-adv-x="785" arabic-form="medial" 
d="M489 1001c26 -22 39 -46 39 -72c0 -33.333 -9.66699 -63 -29 -89c-20.667 -28 -46 -42 -76 -42c-88.667 0 -133 43.667 -133 131c0 24.667 13.333 48.667 40 72c26 22 52.333 33 79 33c28 0 54.667 -11 80 -33zM315 181c58 0 97.667 11.665 119 34.998
c20.667 22.667 31 64.334 31 125.001v252h174v-252c0 -64 12.667 -107 38 -129c23.333 -19.333 69.333 -29.666 138 -30.999v-171l-102 4l-55 8l-42 21l-60 48c-64.667 -54 -126 -81 -184 -81h-401v171h344z" />
    <glyph glyph-name="uniFEEA" unicode="&#x647;" horiz-adv-x="1186" arabic-form="final" 
d="M624 204c41.333 36.667 62 78.002 62 124.002c0 38 -12 76 -36 114l-162 163l-7 -8c-72.667 -66.667 -119.667 -117.334 -141 -152.001c-22 -34.667 -33 -71 -33 -109c0 -38.667 15.333 -78.334 46 -119.001c32 -44 78.333 -66 139 -66c48 0 92 17.667 132 53z
M489 -12.998c-96 0 -179.331 34.666 -249.998 103.999c-70 69.333 -105 154.333 -105 255c0 67.333 24 136.333 72 207c20.667 32.667 73 91 157 175l-56 66l117 117l567 -603c53.333 -55.333 89.333 -90.666 108 -105.999l2 -1c26 -12 65 -18.667 117 -20v-171
c-90.667 0.666992 -147 12 -169 34h-1c-10.667 4 -80.334 64 -209.001 180c-72.667 -158 -189.334 -237 -350.001 -237z" />
    <glyph glyph-name="uniFEEE" unicode="&#x648;" horiz-adv-x="951" arabic-form="final" 
d="M650 10c-164 0 -283.001 23.667 -357.001 71c-86 54.667 -129 151 -129 289c0 152.667 37.667 262.334 113 329.001c48 38 121.667 57 221 57c142.667 0 241.334 -59.333 296.001 -178c31.333 -74.667 47 -203.667 47 -387v-10h130v-171h-130v-10
c0 -90.667 -23 -173 -69 -247c-40.667 -66.667 -95.667 -120.334 -165 -161.001c-76 -44.667 -159 -67 -249 -67h-238l-26 168h233c98 0 178 31 240 93s93 133.333 93 214v10h-10zM668.999 375c0 62 -15.667 112.333 -47 151c-32.667 40.667 -77.667 61 -135 61
c-98.667 0 -148 -69 -148 -207c0 -78.667 21.667 -132 65 -160c41.333 -26 126 -39 254 -39h11v194z" />
    <glyph glyph-name="uniFEF0" unicode="&#x649;" horiz-adv-x="1373" arabic-form="final" 
d="M1217 10l8.99902 -103c0 -106 -42.333 -196.333 -127 -271c-82 -74 -176 -111 -282 -111h-298c-142 0 -258.333 54.333 -349 163c-76.667 103.333 -115 230.333 -115 381v331h174v-408c0 -69.333 24 -134 72 -194l1 -1c64 -69.333 151 -104 261 -104h245
c65.333 0 123 19 173 57c48.667 38 73 94 73 168c0 41.333 -32.333 67.333 -97 78c-53.333 9.33301 -152.666 14 -297.999 14l-14 171h749v-171h-177z" />
    <glyph glyph-name="uniFEF2" unicode="&#x64a;" horiz-adv-x="1373" arabic-form="final" 
d="M581 -664c24 -24 36 -51.668 36 -83.001c0 -27.333 -11 -53.666 -33 -78.999c-22.667 -25.333 -47 -38 -73 -38c-87.333 0 -131 43.667 -131 131c0 24.667 13.333 48.667 40 72c25.333 22 51.333 33 78 33c31.333 0 59 -12 83 -36zM874 -664.001
c24.667 -24.667 37.001 -52.334 37.001 -83.001c0 -27.333 -11 -53.666 -33 -78.999c-22.667 -25.333 -47 -38 -73 -38c-88 0 -132 43.667 -132 131c0 26 13 50 39 72c25.333 22 51.666 33 78.999 33c31.333 0 59 -12 83 -36zM1217 9.99902l8.99902 -103
c0 -106 -42.333 -196.333 -127 -271c-82 -74 -176 -111 -282 -111h-298c-142 0 -258.333 54.333 -349 163c-76.667 103.333 -115 230.333 -115 381v331h174v-408c0 -69.333 24 -134 72 -194l1 -1c64 -69.333 151 -104 261 -104h245c65.333 0 123 19 173 57
c48.667 38 73 94 73 168c0 41.333 -32.333 67.333 -97 78c-53.333 9.33301 -152.666 14 -297.999 14l-14 171h749v-171h-177z" />
    <glyph glyph-name="uniFEF3" unicode="&#x64a;" horiz-adv-x="623" arabic-form="initial" 
d="M546 313c0 -76.667 -26.666 -146 -79.999 -208c-54.667 -63.333 -118.334 -95 -191.001 -95h-300v171h240c67.333 0 113.333 17.333 138 52l1 1c10 17.333 15 53 15 107v252h177v-280zM258.001 -229c24 -24 36 -51.668 36 -83.001c0 -27.333 -11 -53.666 -33 -78.999
c-22.667 -25.333 -47 -38 -73 -38c-87.333 0 -131 43.667 -131 131c0 24.667 13.333 48.667 40 72c25.333 22 51.333 33 78 33c31.333 0 59 -12 83 -36zM551.001 -229.001c24.667 -24.667 37.001 -52.334 37.001 -83.001c0 -27.333 -11 -53.666 -33 -78.999
c-22.667 -25.333 -47 -38 -73 -38c-88 0 -132 43.667 -132 131c0 26 13 50 39 72c25.333 22 51.666 33 78.999 33c31.333 0 59 -12 83 -36z" />
    <glyph glyph-name=".notdef" horiz-adv-x="1024" 
d="M0 1092h820v-1092h-820v1092zM718 102v888h-616v-888h616z" />
    <glyph glyph-name="space" unicode=" " horiz-adv-x="348" 
 />
    <glyph glyph-name="space" horiz-adv-x="348" 
 />
    <glyph glyph-name="quotedbl" unicode="&#x22;" horiz-adv-x="857" 
d="M564 1207c7.33301 -10.667 11 -29.9971 11 -57.9971c0 -4 -5.66699 -61.333 -17 -172s-17 -168.334 -17 -173.001h-52c0 8 -5.33301 69 -16 183c-10.667 111.333 -16 172.666 -16 183.999c0 37.333 20 56 60 56c23.333 -0.666992 39 -7.33398 47 -20.001zM312 1207
c7.33301 -10.667 11 -29.9971 11 -57.9971c0 -4 -5.66699 -61.333 -17 -172s-17 -168.334 -17 -173.001h-52c0 8 -5.33301 69 -16 183c-10.667 111.333 -16 172.666 -16 183.999c0 37.333 20 56 60 56c23.333 -0.666992 39 -7.33398 47 -20.001z" />
    <glyph glyph-name="numbersign" unicode="#" horiz-adv-x="764" 
d="M523 624h-233l-53 -264h231zM24 280v80h131l56 264h-187v80h202l60 287h78l-60 -287h234l60 287h79l-57 -287h117v-80h-134l-54 -264h188v-80h-205l-57 -286h-81l58 286h-232l-58 -286h-80l59 286h-117z" />
    <glyph glyph-name="dollar" unicode="$" horiz-adv-x="764" 
d="M403 70c52.667 5.33301 96.333 25.666 131 60.999c35.333 37.333 53 83.333 53 138c0 58.667 -14.333 101.334 -43 128.001c-26.667 25.333 -73.667 48 -141 68v-395zM352.999 930c-49.333 -8 -89.333 -26.332 -120 -54.999c-34.667 -32 -52 -72.667 -52 -122
c0 -96.667 57.333 -158.334 172 -185.001v362zM156.999 933.001c47.333 42 112.666 67.332 195.999 75.999v58h50v-58c153.333 -17.333 241 -92.666 263 -225.999l-105 -14c-18 91.333 -70.667 144.666 -158 159.999v-370c52.667 -13.333 95.334 -25.666 128.001 -36.999
c106 -46.667 159 -127.334 159 -242.001c0 -82.667 -26 -150.667 -78 -204c-51.333 -52 -117.666 -80 -198.999 -84h-10v-123h-50v119c-62.667 8 -109.334 19.667 -140.001 35c-91.333 49.333 -142 130.333 -152 243l101 18c23.333 -132.667 87 -204 191 -214v405
c-60.667 14.667 -110 32.334 -148 53.001c-83.333 46 -125 117.667 -125 215c0 80.667 25.667 144 77 190z" />
    <glyph glyph-name="percent" unicode="%" horiz-adv-x="866" 
d="M697 38c-17.333 -16.667 -37.998 -25 -61.998 -25c-24.667 0 -45 8.33301 -61 25c-16.667 16 -25 36.333 -25 61c0 23.333 8.33301 43.666 25 60.999c17.333 17.333 37.666 26 60.999 26s43.666 -8.66699 60.999 -26s26 -37.666 26 -60.999
c0 -24 -8.33301 -44.333 -25 -61zM247.002 828c-17.333 -17.333 -37.334 -25.999 -60.001 -25.999c-23.333 0 -43.666 8.33301 -60.999 25c-17.333 17.333 -26 37.666 -26 60.999c0 24 8.66699 44.333 26 61c16.667 16.667 37 25 61 25c23.333 0 43.333 -8.66699 60 -26
c17.333 -16.667 26 -36.667 26 -60c0 -22.667 -8.66699 -42.667 -26 -60zM233.001 6.00098h-125l535 979h131z" />
    <glyph glyph-name="ampersand" unicode="&#x26;" horiz-adv-x="917" 
d="M358 501c-96.667 -54.667 -153.667 -111 -171 -169c-4.66699 -14 -7 -32.333 -7 -55c0 -44 16.333 -87.333 49 -130c33.333 -45.333 81 -68 143 -68c43.333 0 87 14.333 131 43c40 26.667 69 57 87 91zM508 877c-24 23.333 -52.666 35 -85.999 35
c-34 0 -63.333 -11.333 -88 -34c-24.667 -23.333 -37 -51.666 -37 -84.999c0 -36 16 -72 48 -108l60 -69c59.333 34 96.666 63.333 111.999 88c17.333 26 26 55.333 26 88c0 33.333 -11.667 61.666 -35 84.999zM580.001 935c44.667 -38.667 66.998 -86.332 66.998 -142.999
c0 -89.333 -60.667 -166 -182 -230l-10 -7l194 -249c25.333 50 43 98.667 53 146l106 -24c-23.333 -84.667 -52.666 -152.667 -87.999 -204c54.667 -68.667 104.667 -119.667 150 -153l-68 -80c-49.333 36 -99 82.667 -149 140l-8 -8c-76 -86 -165 -129 -267 -129
c-100.667 0 -180 33 -238 99c-47.333 53.333 -71 112.666 -71 177.999c0 128 80.333 225 241 291c-66.667 85.333 -104 144.333 -112 177c-3.33301 12.667 -5 26.667 -5 42c0 58.667 23.667 108.667 71 150c46 40 99.667 60 161 60c60.667 0 112.334 -18.667 155.001 -56z
" />
    <glyph glyph-name="quotesingle" unicode="'" horiz-adv-x="491" 
d="M312 1207c7.33301 -10.667 11 -29.9971 11 -57.9971c0 -4 -5.66699 -61.333 -17 -172s-17 -168.334 -17 -173.001h-52c0 8 -5.33301 69 -16 183c-10.667 111.333 -16 172.666 -16 183.999c0 37.333 20 56 60 56c23.333 -0.666992 39 -7.33398 47 -20.001z" />
    <glyph glyph-name="parenleft" unicode="(" horiz-adv-x="722" 
d="M387 -55c-182.667 241.333 -274 475.999 -274 703.999c0 120 26 239.333 78 358l1 1c32.667 100.667 97.667 208.667 195 324h96c-81.333 -152 -132 -265.667 -152 -341c-36 -116 -54 -243.333 -54 -382c0 -203.333 69 -424.666 207 -663.999h-97z" />
    <glyph glyph-name="parenright" unicode=")" horiz-adv-x="636" 
d="M121 -55c138 239.333 207 456.999 207 652.999c0 200 -37.333 381.667 -112 545c-24 52.667 -55.333 115.667 -94 189h95c96.667 -111.333 162 -219.333 196 -324l1 -1c51.333 -117.333 77 -236.666 77 -357.999c0 -228 -91.333 -462.667 -274 -704h-96z" />
    <glyph glyph-name="asterisk" unicode="*" horiz-adv-x="945" 
d="M492 604l-198 -201h-59l233 234h-285l12 57h290l-227 223h49l190 -186l5 269l79 26l-5 -284l188 175h60l-237 -223h294l-14 -57h-280l230 -234h-48l-194 200l-8 -271l-80 -25z" />
    <glyph glyph-name="plus" unicode="+" horiz-adv-x="1052" 
d="M469 496h-334v119h334v333h119v-333h333v-119h-333v-333h-119v333z" />
    <glyph glyph-name="comma" unicode="," horiz-adv-x="217" 
d="M56 -129h-50l75 260h96z" />
    <glyph glyph-name="hyphen" unicode="-" horiz-adv-x="1054" 
d="M135 615h786v-119h-786v119z" />
    <glyph glyph-name="period" unicode="." horiz-adv-x="571" 
d="M409 51c-26 -25.333 -56.668 -38 -92.001 -38c-34.667 0 -65 12.667 -91 38c-25.333 26 -38 56.333 -38 91c0 35.333 12.667 66 38 92c26 26 56.333 39 91 39s65.334 -13.333 92.001 -40c26.667 -26 40 -56.333 40 -91s-13.333 -65 -40 -91z" />
    <glyph glyph-name="slash" unicode="/" horiz-adv-x="866" 
d="M233 6h-125l535 979h131z" />
    </font>
</defs>
</svg>
